<?xml version="1.0" encoding="UTF-8"?>
<svg width="268px" height="721px" viewBox="0 0 268 721" version="1.1" xmlns="http://www.w3.org/2000/svg" xmlns:xlink="http://www.w3.org/1999/xlink">
    <!-- Generator: Sketch 47.1 (45422) - http://www.bohemiancoding.com/sketch -->
    <title>ecg_network_full</title>
    <desc>Created with Sketch.</desc>
    <defs>
        <linearGradient x1="50%" y1="100%" x2="50%" y2="0%" id="linearGradient-1">
            <stop stop-color="#FFFFFF" stop-opacity="0.5" offset="0%"></stop>
            <stop stop-color="#000000" stop-opacity="0.423120471" offset="100%"></stop>
        </linearGradient>
        <linearGradient x1="50%" y1="0%" x2="50%" y2="100%" id="linearGradient-2">
            <stop stop-color="#FFFFFF" stop-opacity="0.5" offset="0%"></stop>
            <stop stop-color="#000000" stop-opacity="0.5" offset="100%"></stop>
        </linearGradient>
    </defs>
    <g id="Page-1" stroke="none" stroke-width="1" fill="none" fill-rule="evenodd">
        <g id="ecg_network_full">
            <text id="×-15" font-family="Helvetica-Light, Helvetica" font-size="12" font-weight="300" fill="#999999">
                <tspan x="243.345483" y="404.406289">× 15</tspan>
            </text>
            <polygon id="Path-9" fill="url(#linearGradient-1)" points="66.7382812 680.648438 23.9101562 696.736694 177.859375 696.736694 135.385742 680.648438"></polygon>
            <g id="network" transform="translate(66.000000, 121.000000)">
                <g id="top" transform="translate(0.000000, 467.000000)">
                    <polygon id="Fill-105" fill="#D0E0E3" points="0.203753703 0.051203664 69.1940709 0.051203664 69.1940709 23.6260076 0.203753703 23.6260076"></polygon>
                    <text id="BN" font-family="Helvetica-Light, Helvetica" font-size="12" font-weight="300" fill="#000000">
                        <tspan x="27.2888951" y="14.1007906">BN</tspan>
                    </text>
                    <polygon id="Fill-108" fill="#FFF2CC" points="0.203753703 23.6260076 69.1940709 23.6260076 69.1940709 47.2008115 0.203753703 47.2008115"></polygon>
                    <text id="ReLU" font-family="Helvetica-Light, Helvetica" font-size="12" font-weight="300" fill="#000000">
                        <tspan x="21.5228822" y="37.6756164">ReLU</tspan>
                    </text>
                    <polygon id="Fill-111" fill="#D9D9D9" points="0.203753703 69.5393954 69.1940709 69.5393954 69.1940709 93.1141993 0.203753703 93.1141993"></polygon>
                    <text id="Softmax" font-family="Helvetica-Light, Helvetica" font-size="12" font-weight="300" fill="#000000">
                        <tspan x="13.7888729" y="83.5889384">Softmax</tspan>
                    </text>
                    <polygon id="Fill-114" fill="#C9DAF8" points="0.203753703 46.6732524 69.1940709 46.6732524 69.1940709 70.2480563 0.203753703 70.2480563"></polygon>
                    <text id="Dense" font-family="Helvetica-Light, Helvetica" font-size="12" font-weight="300" fill="#000000">
                        <tspan x="18.1177188" y="62.8080334">Dense</tspan>
                    </text>
                </g>
                <g id="block" transform="translate(0.000000, 280.000000)">
                    <polygon id="Fill-117" fill="#D0E0E3" points="0.198206459 70.1141908 69.1885197 70.1141908 69.1885197 93.6889947 0.198206459 93.6889947"></polygon>
                    <text id="BatchNorm" font-family="Helvetica-Light, Helvetica" font-size="12" font-weight="300" fill="#000000">
                        <tspan x="4.28334885" y="86.1637532">BatchNorm</tspan>
                    </text>
                    <polygon id="Fill-120" fill="#FFF2CC" points="0.198206459 93.6889947 69.1885197 93.6889947 69.1885197 117.263799 0.198206459 117.263799"></polygon>
                    <text id="ReLU" font-family="Helvetica-Light, Helvetica" font-size="12" font-weight="300" fill="#000000">
                        <tspan x="20.5173359" y="108.738586">ReLU</tspan>
                    </text>
                    <polygon id="Fill-123" fill="#F4CCCC" points="0.198206459 117.263799 69.1885197 117.263799 69.1885197 140.838603 0.198206459 140.838603"></polygon>
                    <text id="Dropout" font-family="Helvetica-Light, Helvetica" font-size="12" font-weight="300" fill="#000000">
                        <tspan x="12.7953199" y="133.313382">Dropout</tspan>
                    </text>
                    <polygon id="Fill-126" fill="#C9DAF8" points="0.198206459 140.838603 69.1885197 140.838603 69.1885197 164.413406 0.198206459 164.413406"></polygon>
                    <text id="Convolution" font-family="Helvetica-Light, Helvetica" font-size="12" font-weight="300" fill="#000000">
                        <tspan x="2.61722339" y="155.973409">Convolution</tspan>
                    </text>
                    <polygon id="Fill-126" fill="#C9DAF8" points="0.198206459 46.8386025 69.1885197 46.8386025 69.1885197 70.4134064 0.198206459 70.4134064"></polygon>
                    <text id="Convolution" font-family="Helvetica-Light, Helvetica" font-size="12" font-weight="300" fill="#000000">
                        <tspan x="2.61722339" y="61.9734092">Convolution</tspan>
                    </text>
                    <polygon id="Fill-31" fill="#D0E0E3" points="0.198206459 0.098439984 69.1885197 0.098439984 69.1885197 23.6732439 0.198206459 23.6732439"></polygon>
                    <text id="BatchNorm" font-family="Helvetica-Light, Helvetica" font-size="12" font-weight="300" fill="#000000">
                        <tspan x="4.28334885" y="14.1480029">BatchNorm</tspan>
                    </text>
                    <polygon id="Fill-34" fill="#FFF2CC" points="0.198206459 23.6732439 69.1885197 23.6732439 69.1885197 47.2480478 0.198206459 47.2480478"></polygon>
                    <text id="ReLU" font-family="Helvetica-Light, Helvetica" font-size="12" font-weight="300" fill="#000000">
                        <tspan x="21.5173359" y="39.7228511">ReLU</tspan>
                    </text>
                </g>
                <g id="block_first" transform="translate(0.000000, 139.000000)">
                    <polygon id="Fill-117" fill="#D0E0E3" points="0.198206459 24.1141908 69.1885197 24.1141908 69.1885197 47.6889947 0.198206459 47.6889947"></polygon>
                    <text id="BatchNorm" font-family="Helvetica-Light, Helvetica" font-size="12" font-weight="300" fill="#000000">
                        <tspan x="4.28334885" y="40.1637532">BatchNorm</tspan>
                    </text>
                    <polygon id="Fill-120" fill="#FFF2CC" points="0.198206459 47.6889947 69.1885197 47.6889947 69.1885197 71.2637986 0.198206459 71.2637986"></polygon>
                    <text id="ReLU" font-family="Helvetica-Light, Helvetica" font-size="12" font-weight="300" fill="#000000">
                        <tspan x="20.5173359" y="62.7385864">ReLU</tspan>
                    </text>
                    <polygon id="Fill-123" fill="#F4CCCC" points="0.198206459 71.2637986 69.1885197 71.2637986 69.1885197 94.8386025 0.198206459 94.8386025"></polygon>
                    <text id="Dropout" font-family="Helvetica-Light, Helvetica" font-size="12" font-weight="300" fill="#000000">
                        <tspan x="12.7953199" y="87.3133822">Dropout</tspan>
                    </text>
                    <polygon id="Fill-126" fill="#C9DAF8" points="0.198206459 94.8386025 69.1885197 94.8386025 69.1885197 118.413406 0.198206459 118.413406"></polygon>
                    <text id="Convolution" font-family="Helvetica-Light, Helvetica" font-size="12" font-weight="300" fill="#000000">
                        <tspan x="2.61722339" y="109.973409">Convolution</tspan>
                    </text>
                    <polygon id="Fill-126" fill="#C9DAF8" points="0.198206459 0.838602544 69.1885197 0.838602544 69.1885197 24.4134064 0.198206459 24.4134064"></polygon>
                    <text id="Convolution" font-family="Helvetica-Light, Helvetica" font-size="12" font-weight="300" fill="#000000">
                        <tspan x="2.61722339" y="15.9734092">Convolution</tspan>
                    </text>
                </g>
                <g id="bottom" transform="translate(0.000000, 46.000000)">
                    <polygon id="Fill-117" fill="#D0E0E3" points="0.198206459 24.1141908 69.1885197 24.1141908 69.1885197 47.6889947 0.198206459 47.6889947"></polygon>
                    <text id="BatchNorm" font-family="Helvetica-Light, Helvetica" font-size="12" font-weight="300" fill="#000000">
                        <tspan x="4.28334885" y="40.1637532">BatchNorm</tspan>
                    </text>
                    <polygon id="Fill-120" fill="#FFF2CC" points="0.198206459 47.6889947 69.1885197 47.6889947 69.1885197 71.2637986 0.198206459 71.2637986"></polygon>
                    <text id="ReLU" font-family="Helvetica-Light, Helvetica" font-size="12" font-weight="300" fill="#000000">
                        <tspan x="20.5173359" y="62.7385864">ReLU</tspan>
                    </text>
                    <polygon id="Fill-126" fill="#C9DAF8" points="0.198206459 0.838602544 69.1885197 0.838602544 69.1885197 24.4134064 0.198206459 24.4134064"></polygon>
                    <text id="Convolution" font-family="Helvetica-Light, Helvetica" font-size="12" font-weight="300" fill="#000000">
                        <tspan x="2.61722339" y="15.9734092">Convolution</tspan>
                    </text>
                </g>
                <polygon id="Fill-10" fill="#EAD1DC" points="105 346 168.803152 346 168.803152 369.574804 105 369.574804"></polygon>
                <text id="max-pool" font-family="Helvetica-Light, Helvetica" font-size="12" font-weight="300" fill="#000000">
                    <tspan x="113" y="361">max pool</tspan>
                </text>
                <polygon id="Fill-28" fill="#EAD1DC" points="105 200 168.803152 200 168.803152 223.574804 105 223.574804"></polygon>
                <text id="max-pool" font-family="Helvetica-Light, Helvetica" font-size="12" font-weight="300" fill="#000000">
                    <tspan x="113" y="215">max pool</tspan>
                </text>
                <polygon id="Fill-49" fill="#D9D9D9" points="0.198824569 0.73622312 69.1988228 0.73622312 69.1988228 24.311027 0.198824569 24.311027"></polygon>
                <text id="Input" font-family="Helvetica-Light, Helvetica" font-size="12" font-weight="300" fill="#000000">
                    <tspan x="18.9785993" y="15.2253455">Input</tspan>
                </text>
            </g>
            <g id="rhythms" transform="translate(24.000000, 696.000000)">
                <polygon id="Fill-148" stroke="#000000" stroke-width="0.5" fill="#CFE2F3" points="38.4964386 0.938687815 77.9166033 0.938687815 77.9166033 23.7794956 38.4964386 23.7794956"></polygon>
                <polygon id="Fill-142" stroke="#000000" stroke-width="0.5" fill="#CFE2F3" points="0.507777369 0.938687815 38.4964386 0.938687815 38.4964386 23.7794956 0.507777369 23.7794956"></polygon>
                <polygon id="Fill-154" stroke="#000000" stroke-width="0.5" fill="#D9EAD3" points="115.113463 0.938687815 153.102121 0.938687815 153.102121 23.7794956 115.113463 23.7794956"></polygon>
                <polygon id="Fill-160" stroke="#000000" stroke-width="0.5" fill="#D9EAD3" points="77.124806 0.938687815 115.113463 0.938687815 115.113463 23.7794956 77.124806 23.7794956"></polygon>
                <text id="AF" font-family="Helvetica-Light, Helvetica" font-size="10" font-weight="300" fill="#000000">
                    <tspan x="51.4367513" y="15.1494822">AF</tspan>
                </text>
                <text id="SINUS" font-family="Helvetica-Light, Helvetica" font-size="10" font-weight="300" fill="#000000">
                    <tspan x="82" y="15">SINUS</tspan>
                </text>
                <text id="SINUS" font-family="Helvetica-Light, Helvetica" font-size="10" font-weight="300" fill="#000000">
                    <tspan x="120" y="15">SINUS</tspan>
                </text>
                <text id="AF" font-family="Helvetica-Light, Helvetica" font-size="10" font-weight="300" fill="#000000">
                    <tspan x="13.4480951" y="15.1494822">AF</tspan>
                </text>
            </g>
            <g id="paths" transform="translate(40.000000, 145.000000)">
                <g id="arrow" transform="translate(59.000000, 0.000000)" stroke="#000000" stroke-width="0.8">
                    <path d="M2,0.289550781 L2,15.9050293" id="Path-2"></path>
                    <polygon id="Path-3" points="0 18.9998169 1.98669434 16 3.97338867 18.9998169 1.98669434 22.0040283"></polygon>
                </g>
                <g id="arrow" transform="translate(59.000000, 93.000000)" stroke="#000000" stroke-width="0.8">
                    <path d="M2,0.289550781 L2,15.9050293" id="Path-2"></path>
                    <polygon id="Path-3" points="0 18.9998169 1.98669434 16 3.97338867 18.9998169 1.98669434 22.0040283"></polygon>
                </g>
                <g id="arrow" transform="translate(57.000000, 233.000000)" stroke="#000000" stroke-width="0.8">
                    <path d="M2,0.289550781 L2,15.9050293" id="Path-2"></path>
                    <polygon id="Path-3" points="0 18.9998169 1.98669434 16 3.97338867 18.9998169 1.98669434 22.0040283"></polygon>
                </g>
                <g id="arrow" transform="translate(59.000000, 420.000000)" stroke="#000000" stroke-width="0.8">
                    <path d="M2,0.289550781 L2,15.9050293" id="Path-2"></path>
                    <polygon id="Path-3" points="0 18.9998169 1.98669434 16 3.97338867 18.9998169 1.98669434 22.0040283"></polygon>
                </g>
                <polygon id="Path-3" stroke="#000000" stroke-width="0.8" points="160.800003 171.999817 162.786697 169 164.773392 171.999817 162.786697 175.004028"></polygon>
                <polygon id="Path-3" stroke="#000000" stroke-width="0.8" points="160.800003 318.999817 162.786697 316 164.773392 318.999817 162.786697 322.004028"></polygon>
                <polyline id="Path-4" stroke="#000000" stroke-width="0.8" points="61.1323242 104 162.822266 104 162.822266 169.493652"></polyline>
                <polyline id="Path-5" stroke="#000000" stroke-width="0.8" points="162.617676 199.665039 162.617676 237.446289 59.3134766 237.446289"></polyline>
                <circle id="Oval" fill="#000000" cx="59" cy="237.399994" r="1"></circle>
                <circle id="Oval" fill="#000000" cx="61" cy="426" r="1"></circle>
                <polyline id="Path-6" stroke="#000000" stroke-width="0.8" points="59.1113281 245.064453 162.765991 245.064453 162.765991 315.922363"></polyline>
                <polyline id="Path-7" stroke="#000000" stroke-width="0.8" points="162.832031 345.513916 162.832031 426.199219 61.3164062 426.199219"></polyline>
                <path d="M170.199219,240.945312 L179.851562,240.945312 L179.851562,240.945312 C196.420105,240.945312 209.851562,254.37677 209.851562,270.945312 L209.851562,401.972656 L209.851562,401.972656 C209.851562,418.541199 196.420105,431.972656 179.851562,431.972656 L170.199219,431.972656" id="Path-8" stroke="#999999" stroke-width="4" stroke-dasharray="12,12"></path>
                <path d="M0.34765625,241 L10,241 L10,241 C26.5685425,241 40,254.431458 40,271 L40,402.027344 L40,402.027344 C40,418.595886 26.5685425,432.027344 10,432.027344 L0.34765625,432.027344" id="Path-8" stroke="#999999" stroke-width="4" stroke-dasharray="12,12" transform="translate(20.173828, 336.513672) rotate(180.000000) translate(-20.173828, -336.513672) "></path>
            </g>
            <polygon id="Path-10" fill="url(#linearGradient-2)" points="1.43359375 104.25 66.09375 121.992188 135.126953 121.992188 202.605469 104.25"></polygon>
            <g id="ecg" stroke="#000000">
                <polyline id="Shape" stroke-width="0.5" stroke-linecap="square" points="1 36.4729345 1.25257872 34.3361823 1.37886833 32.7692308 1.50515793 33.9088319 1.88402626 22.7977208 2.19974978 19.6638177 2.45232899 19.9487179 2.5154738 19.5213675 2.57861811 20.0911681 2.76805252 27.6410256 3.14692084 51.002849 3.39950006 59.5498575 3.52578917 61.5441595 3.77836838 63.6809117 3.90465749 63.2535613 4.34667062 61.2592593 4.47296023 60.6894587 4.66239464 62.8262108 4.78868375 60.1196581 4.91497336 57.5555556 5.10440777 55.7037037 5.29384168 53.7094017 5.42013129 54.2792023 5.6095657 52.2849003 5.98843403 47.8689459 6.11472314 48.4387464 6.24101275 49.5783476 6.55673627 51.5726496 6.68302587 53.2820513 6.80931548 52.7122507 6.9987494 53.5669516 7.0618942 52.1424501 7.125039 46.3019943 7.31447341 15.3903134 7.37761822 22.2279202 7.69334174 100.717949 8.19849967 51.002849 8.32478878 45.1623932 8.45107839 42.8831909 8.6405128 41.8860399 8.82994672 41.6011396 8.89309152 40.8888889 9.33510465 30.9173789 9.52453906 31.3447293 9.71397298 29.6353276 9.84026258 28.2108262 10.4085653 20.8034188 10.5348544 19.6638177 10.8505784 21.5156695 10.9768676 27.6410256 11.5451703 57.982906 11.7346047 62.8262108 11.7977495 63.2535613 11.9240386 64.8205128 11.9871834 65.2478632 12.1766178 62.1139601 12.4923414 55.8461538 12.6817758 57.5555556 12.8712097 56.7008547 13.0606441 57.2706553 13.1237889 56.8433048 13.1869332 55.988604 13.250078 56.4159544 13.3132228 55.988604 13.4395124 56.4159544 13.5026572 55.8461538 13.6920911 56.8433048 13.7552359 56.4159544 14.0709595 61.1168091 14.4498283 58.1253561 14.702407 58.4102564 14.8918414 56.985755 15.3338545 51.4301994 15.4601437 44.7350427 15.5232885 38.039886 15.7127229 2 15.7758677 8.26780627 15.9021568 43.7378917 16.0915912 94.7350427 16.154736 93.7378917 16.4073147 64.5356125 16.5967491 49.8632479 16.7230382 45.5897436 16.786183 44.7350427 16.9124726 45.1623932 17.1019071 46.7293447 17.1650514 48.2962963 17.6702093 40.8888889 17.7964989 39.8917379 17.9859333 37.1851852 18.238512 32.1994302 18.4910908 26.3589744 18.74367 16.3874644 18.8699596 12.6837607 18.9331039 12.2564103 19.0593935 13.2535613 19.1856831 15.6752137 19.375117 22.0854701 19.5645514 32.9116809 19.9434197 55.8461538 20.2591433 67.3846154 20.3222881 67.954416 20.5117225 67.5270655 20.7643012 64.3931624 20.827446 63.8233618 21.4588935 56.4159544 21.7114723 49.4358974 21.9009067 46.8717949 22.0271958 45.8746439 22.7217881 56.4159544 23.1006565 58.980057 23.3532352 63.3960114 23.41638 62.8262108 23.5426696 60.5470085 23.732104 59.5498575 23.8583931 59.977208 23.9215379 59.5498575 24.1109723 56.8433048 24.2372614 56.4159544 24.3004062 55.8461538 24.5529854 53.7094017 24.7424194 48.8660969 24.868709 45.8746439 25.0581434 45.3048433 25.2475773 47.4415954 25.4370117 49.5783476 25.6264456 51.002849 25.6895904 51.5726496 25.81588 52.997151 26.0053139 54.7065527 26.1947484 55.7037037 26.5736167 59.5498575 26.6999063 57.4131054 26.952485 55.8461538 27.0156298 55.2763533 27.268209 53.2820513 27.4576429 52.5698006 27.7102222 51.002849 27.8996561 47.1566952 28.0890905 42.5982906 28.2153796 40.7464387 28.2785244 41.4586895 28.4679588 45.3048433 28.7205375 48.4387464 28.9731167 50.4330484 29.0994059 49.5783476 29.2256955 51.002849 29.3519851 51.7150997 29.4782747 51.002849 29.541419 47.7264957 29.7308534 17.3846154 29.7939982 19.3789174 29.9202878 44.022792 30.1097217 93.1680912 30.1728665 96.7293447 30.2991561 82.9116809 30.5517348 59.4074074 30.7411693 43.5954416 30.9306032 35.4757835 31.3094715 28.7806268 31.3726163 29.2079772 31.5620507 30.7749288 31.8146294 31.7720798 31.8777742 32.3418803 32.0672086 31.2022792 32.1303534 30.3475783 32.2566426 30.7749288 32.446077 28.6381766 32.6355109 25.7891738 33.0143797 24.5071225 33.5195371 29.0655271 33.6458268 32.9116809 33.9615503 47.2991453 34.2141295 52.5698006 34.4667082 55.4188034 34.5929978 58.8376068 34.8455765 60.1196581 34.9718661 59.5498575 35.1613005 59.977208 35.2875897 59.1225071 35.5401689 57.4131054 35.7296028 56.4159544 35.982182 55.2763533 36.1084716 57.2706553 36.4241951 54.2792023 36.5504847 56.985755 36.8030635 52.997151 36.9293531 54.2792023 37.3082214 51.002849 37.5608001 49.008547 37.6870897 50.5754986 37.7502345 50.1481481 37.8133793 50.5754986 37.9396684 52.1424501 38.4448264 54.8490028 38.571116 55.2763533 38.6974056 54.8490028 38.8236947 55.4188034 39.2025635 56.7008547 39.3919974 56.985755 39.4551422 56.4159544 39.5814318 57.982906 39.6445766 57.5555556 39.707721 55.7037037 39.8340106 46.8717949 40.023445 13.6809117 40.0865898 15.8176638 40.2128789 39.8917379 40.4023133 87.1851852 40.4654581 88.7521368 40.9074712 48.8660969 41.0337603 41.6011396 41.1600499 39.7492877 41.3494844 40.4615385 41.7914975 40.1766382 41.8546423 39.3219373 42.107221 38.3247863 42.2966554 36.6153846 42.3597997 36.1880342 42.6123789 36.6153846 42.7386685 34.9059829 42.9281025 27.2136752 43.1806817 21.5156695 43.3069708 18.5242165 43.3701156 17.954416 43.55955 18.6666667 43.8121287 23.2250712 43.9384183 27.2136752 44.3804315 53.1396011 44.5698654 58.8376068 44.8224446 62.8262108 45.0118785 63.3960114 45.2013129 64.3931624 45.3907473 63.965812 45.4538916 63.3960114 45.643326 64.3931624 46.0853392 59.6923077 46.2116288 60.1196581 46.779931 51.5726496 46.9062206 51.002849 47.1587998 50.005698 47.2850889 51.002849 47.4745234 53.7094017 47.6639573 56.4159544 47.7271021 56.8433048 47.7902469 56.4159544 47.9165365 56.985755 48.1691152 57.982906 48.2954048 56.8433048 48.4216944 57.2706553 48.5479835 56.4159544 48.6111283 54.2792023 48.6742731 48.8660969 48.8637076 24.9344729 48.9899967 45.7321937 49.1794311 89.6068376 49.2425759 94.3076923 49.3057207 91.1737892 49.5582994 63.8233618 49.8740229 44.1652422 50.0003125 42.02849 50.4423257 38.1823362 50.6949049 39.3219373 50.821194 38.039886 50.8843388 38.6096866 51.2632071 35.7606838 51.3894967 34.4786325 51.6420754 29.0655271 51.7052202 28.4957265 51.9577995 22.9401709 52.273523 20.5185185 52.5892465 25.0769231 52.7155361 31.3447293 53.220694 58.980057 53.410128 62.8262108 53.6627072 64.962963 53.8521411 63.6809117 54.0415755 64.2507123 54.2310099 63.6809117 54.357299 64.962963 54.4835886 65.5327635 54.7361673 65.8176638 54.7993121 64.8205128 54.8624569 62.8262108 55.0518914 51.5726496 55.2413253 52.2849003 55.3044701 51.5726496 55.6833384 52.1424501 55.809628 54.1367521 55.8727728 53.7094017 56.0622067 53.1396011 56.2516411 53.7094017 56.3779307 54.7065527 56.4410755 54.2792023 56.6936543 53.7094017 56.7567991 54.1367521 57.0093778 53.7094017 57.1988122 53.1396011 57.3251018 53.7094017 57.4513909 54.1367521 57.5145357 53.7094017 57.6408253 53.1396011 58.0828385 53.5669516 58.2091281 52.997151 58.398562 53.2820513 58.5879964 52.5698006 58.7774303 52.2849003 58.9037199 52.997151 59.4720226 52.5698006 59.5983118 53.1396011 59.7246014 52.7122507 59.9140358 52.1424501 59.9771806 52.997151 60.1666145 52.1424501 60.6717724 51.4301994 60.798062 52.1424501 60.987496 51.1452991 61.1769304 52 61.4295091 51.7150997 61.6189435 50.4330484 61.8083774 51.002849 61.934667 50.005698 61.9978118 48.011396 62.0609566 43.5954416 62.2503905 12.1139601 62.3135353 15.6752137 62.4398249 44.1652422 62.6292594 89.3219373 62.6924037 91.4586895 63.1344168 45.5897436 63.2607064 39.8917379 63.3238512 38.7521368 63.4501408 38.3247863 63.6395747 38.039886 63.7027195 38.6096866 63.8921539 38.039886 64.1447327 35.6182336 64.2710223 35.048433 64.6498906 31.9145299 64.7761802 29.7777778 64.9656141 27.0712251 65.0919037 24.7920228 65.3444824 21.5156695 65.4076272 21.0883191 65.470772 19.9487179 65.6602065 20.6609687 65.7864956 21.0883191 65.8496404 20.6609687 66.1022196 27.2136752 66.2916535 35.1908832 66.5442327 48.7236467 66.7336666 56.5584046 66.923101 60.8319088 67.112535 62.5413105 67.4914038 60.974359 68.1859956 56.4159544 68.3122852 54.5641026 68.5017191 53.7094017 68.6911536 52.8547009 69.1331667 52.4273504 69.3226006 53.994302 69.512035 54.5641026 69.6383246 55.1339031 70.0171929 53.7094017 70.1434826 48.8660969 70.2697717 47.2991453 70.4592061 49.2934473 70.5854957 48.7236467 70.8380744 51.1452991 70.964364 50.1481481 71.0906531 51.002849 71.2169427 55.4188034 71.3432323 59.2649573 71.4695219 58.2678063 71.595811 56.7008547 71.7221007 55.8461538 71.8483903 56.7008547 72.0378242 56.4159544 72.100969 55.8461538 72.4166925 55.1339031 72.5429821 54.7065527 72.7324165 54.4216524 72.8587056 52.8547009 72.9218504 49.7207977 72.9849952 43.5954416 73.1112848 17.8119658 73.1744297 16.957265 73.3007188 40.8888889 73.4901532 98.2962963 73.553298 102 73.6795876 87.3276353 73.9953111 54.4216524 74.184745 41.031339 74.3741794 37.8974359 74.500469 36.6153846 74.5636138 37.1851852 75.0687713 34.4786325 75.1950609 32.9116809 75.3844953 31.3447293 75.5107844 29.9202279 75.5739292 29.3504274 76.3316664 14.962963 76.4579555 13.5384615 76.6473899 13.8233618 76.7105347 14.962963 76.8368238 15.8176638 76.9631134 21.3732194 77.1525478 32.4843305 77.5314161 54.7065527 77.7208501 60.4045584 77.9102845 63.8233618 78.226008 62.968661 78.2891528 62.5413105 78.4154424 61.97151 78.4785872 62.3988604 78.541732 61.6866097 78.8574555 60.2621083 79.6151922 54.2792023 79.7414818 54.991453 79.9940605 52.997151 80.1834949 54.2792023 80.3097845 53.2820513 80.5623632 53.994302 80.7517976 54.2792023 80.8780868 53.7094017 81.0043764 54.2792023 81.2569551 53.7094017 81.4463895 54.991453 81.5095343 54.5641026 81.6358239 53.5669516 81.8252578 54.5641026 82.077837 53.8518519 82.2041261 54.4216524 82.5198502 53.2820513 82.7724289 54.5641026 82.9618633 53.2820513 83.0881524 53.994302 83.2775868 53.7094017 83.4038764 52.4273504 83.5301655 53.5669516 83.5933103 53.1396011 83.8458896 45.1623932 84.1616131 44.3076923 84.2879027 45.3048433 84.4141918 48.1538462 84.6036262 46.5868946 84.666771 47.4415954 84.9824945 55.8461538 85.0456393 54.7065527 85.1719289 53.8518519 85.4245077 54.991453 85.8665208 52.4273504 85.9296656 53.1396011 86.0559552 51.7150997 86.1190995 49.2934473 86.1822443 43.4529915 86.3716787 14.1082621 86.4348235 19.8062678 86.5611126 52.997151 86.6874022 92.5982906 86.750547 100.433048 86.8136918 98.2962963 87.0031258 74.6495726 87.1925602 57.982906 87.3819946 43.025641 87.5082837 38.6096866 87.5714285 38.039886 87.6977181 38.6096866 87.8240077 38.1823362 88.0134416 36.045584 88.5185996 32.7692308 88.708034 31.6296296 89.0237575 26.2165242 89.1500471 23.3675214 89.339481 20.6609687 89.4657706 18.6666667 89.5920602 17.0997151 89.7814941 16.3874644 89.9077838 17.0997151 90.3497969 29.9202279 90.79181 55.1339031 91.1706783 61.8290598 91.2969679 62.3988604 91.4864019 61.6866097 91.7389811 62.5413105 91.928415 60.4045584 92.1809942 60.1196581 92.3072833 57.982906 92.4967177 55.988604 92.5598625 56.7008547 92.7492964 55.1339031 92.8124412 54.2792023 93.1913096 52.4273504 93.5701784 52.1424501 93.8227571 52.997151 94.0121915 53.2820513 94.2016254 52.997151 94.327915 53.8518519 94.4542047 54.2792023 94.6436386 53.8518519 94.7067834 54.4216524 94.833073 53.2820513 95.0856517 54.4216524 95.2119413 53.994302 95.4013752 53.2820513 95.46452 53.7094017 95.780244 53.1396011 96.0328228 52.4273504 96.0959676 52.997151 96.3485463 53.7094017 96.4748359 52.8547009 96.9799938 45.7321937 97.1694277 45.4472934 97.2957173 43.7378917 97.3588621 44.5925926 97.4851518 48.011396 97.6745857 46.5868946 97.7377305 47.1566952 98.053454 55.1339031 98.2428884 52.997151 98.369178 53.7094017 98.4954671 54.7065527 98.7480463 53.5669516 98.8111911 52.8547009 99.1269147 51.1452991 99.1900595 48.5811966 99.2532043 42.8831909 99.4426382 14.962963 99.505783 21.3732194 99.6320726 52.1424501 99.7583622 89.8917379 99.8215065 96.7293447 99.8846513 93.4529915 100.074086 71.9430199 100.137231 68.8091168 100.452954 41.3162393 100.579244 39.3219373 100.768678 37.3276353 100.958112 37.042735 101.021257 36.4729345 101.273836 35.3333333 101.589559 33.4814815 101.715849 32.1994302 102.66302 16.5299145 102.852454 15.1054131 103.168178 18.5242165 103.420756 30.0626781 103.925914 56.7008547 104.052204 60.4045584 104.178493 61.6866097 104.431072 62.6837607 104.683651 61.6866097 105.06252 60.8319088 105.441388 58.8376068 105.883401 55.7037037 106.26227 52.997151 106.514848 52.4273504 106.767427 52.8547009 106.830572 52.4273504 107.083151 53.7094017 107.209441 52.8547009 107.398875 53.994302 107.588309 53.1396011 107.651454 53.8518519 107.840888 53.2820513 107.967177 53.8518519 108.282901 53.2820513 108.472335 54.4216524 108.598625 53.994302 108.661769 53.1396011 108.977493 53.7094017 109.166927 52.5698006 109.356361 52.997151 109.672085 51.7150997 109.798375 52.5698006 109.924664 52.1424501 110.177243 44.3076923 110.366677 45.1623932 110.492966 43.8803419 110.619256 44.3076923 110.80869 47.5840456 110.93498 46.017094 111.061269 46.5868946 111.187559 50.4330484 111.313848 54.7065527 111.376993 55.4188034 111.503282 54.2792023 111.629572 53.5669516 111.819006 53.8518519 112.13473 52.4273504 112.387309 51.002849 112.450453 47.8689459 112.576743 29.6353276 112.639887 19.9487179 112.703032 20.8034188 112.829322 42.1709402 113.0819 96.1595442 113.145045 91.7435897 113.397624 64.6780627 113.587058 46.1595442 113.713348 40.7464387 113.839638 37.7549858 113.965927 37.3276353 114.155361 36.6153846 114.40794 34.6210826 114.597374 33.9088319 115.291966 26.6438746 115.544545 21.3732194 115.860269 15.1054131 116.049703 12.8262108 116.302282 13.8233618 116.365427 14.3931624 116.491716 17.8119658 116.618005 24.2222222 117.186308 58.1253561 117.312598 61.4017094 117.438887 62.3988604 117.565176 63.8233618 117.817756 62.5413105 118.259769 61.8290598 118.322914 60.974359 118.386058 61.5441595 118.575492 60.1196581 118.954361 57.982906 119.143795 56.7008547 119.396374 55.2763533 119.585808 53.2820513 119.775242 53.994302 119.964677 53.1396011 120.217255 54.4216524 120.40669 53.2820513 120.469834 53.7094017 120.722413 54.7065527 120.974992 53.7094017 121.101282 54.2792023 121.164426 53.8518519 121.227571 54.7065527 121.353861 53.8518519 121.417006 54.2792023 121.543295 53.5669516 121.732729 53.994302 121.922163 53.7094017 122.048453 53.2820513 122.111597 53.7094017 122.364176 53.2820513 122.490466 52.8547009 122.743045 53.1396011 122.995624 51.4301994 123.185058 45.1623932 123.248202 44.4501425 123.374492 44.8774929 123.563926 43.5954416 123.816505 47.2991453 123.942795 46.5868946 124.132229 48.011396 124.195373 49.5783476 124.321663 54.991453 124.384808 55.8461538 124.637387 54.4216524 124.763676 55.1339031 124.889966 54.2792023 125.268834 52.8547009 125.395124 52.2849003 125.458268 50.8603989 125.521413 47.2991453 125.710847 15.6752137 125.773992 18.5242165 125.900281 45.3048433 126.089716 98.4387464 126.15286 100.290598 126.784307 39.4643875 126.910597 37.8974359 127.036887 36.6153846 127.226321 35.7606838 127.415755 35.3333333 127.542045 33.6239316 127.794623 32.3418803 127.984058 31.0598291 128.236636 26.9287749 128.362926 25.7891738 128.67865 18.6666667 128.741794 17.8119658 128.931229 12.8262108 129.183807 11.4017094 129.499531 14.5356125 129.688965 23.3675214 130.194123 55.1339031 130.383557 60.974359 130.572992 63.1111111 130.762426 62.5413105 130.888715 63.3960114 131.07815 61.97151 131.330728 62.3988604 131.457018 61.1168091 131.583307 60.6894587 131.709597 59.5498575 132.025321 56.7008547 132.15161 55.7037037 132.404189 54.7065527 132.593623 53.2820513 132.783057 52.8547009 132.846202 52.4273504 132.972491 53.7094017 133.035636 53.1396011 133.414504 53.7094017 133.540794 53.2820513 133.793373 53.7094017 133.982807 53.994302 134.172241 53.7094017 134.361675 53.994302 134.42482 54.7065527 134.55111 53.7094017 134.677399 53.2820513 134.866833 53.994302 135.056268 53.2820513 135.119413 53.7094017 135.182557 53.2820513 135.245702 53.994302 135.498281 53.1396011 135.62457 53.7094017 135.814004 52.2849003 136.129728 45.7321937 136.382307 43.8803419 136.508596 45.1623932 136.634886 47.8689459 136.761175 46.8717949 136.82432 47.4415954 137.076899 53.1396011 137.203189 55.4188034 137.455767 53.1396011 137.582057 54.4216524 137.771491 53.8518519 137.89778 52.997151 138.213504 51.8575499 138.276649 50.8603989 138.339794 48.2962963 138.402938 41.6011396 138.529228 15.1054131 138.592373 13.5384615 138.718662 35.6182336 138.908096 95.019943 138.971241 100.575499 139.034386 96.8717949 139.22382 75.0769231 139.350109 63.8233618 139.539544 45.7321937 139.665833 39.8917379 139.792123 37.4700855 139.918412 37.042735 140.044701 35.7606838 140.360425 35.048433 140.613004 32.9116809 141.307596 25.5042735 141.49703 20.6609687 141.560175 20.0911681 141.875899 14.2507123 142.002188 13.5384615 142.381057 19.2364672 142.507346 23.6524217 142.949359 50.8603989 143.201938 60.4045584 143.328228 63.1111111 143.454517 62.6837607 143.580806 63.2535613 143.707096 62.5413105 143.89653 63.1111111 143.959675 62.3988604 144.212254 62.968661 144.338543 61.4017094 144.464833 58.6951567 144.654267 59.6923077 144.717412 59.2649573 144.906846 55.8461538 144.96999 55.4188034 145.09628 55.988604 145.348859 53.5669516 145.412004 53.1396011 145.601438 52.8547009 145.727728 52.2849003 145.917162 53.7094017 146.106596 52.8547009 146.422319 53.7094017 146.548609 52.8547009 146.738043 54.2792023 146.864333 54.7065527 147.053767 53.5669516 147.432635 53.1396011 147.685214 53.994302 147.811504 53.2820513 147.937793 54.2792023 148.127227 53.2820513 148.253517 53.7094017 148.56924 52.2849003 148.82182 45.8746439 148.884964 45.4472934 148.948109 45.8746439 149.137543 44.1652422 149.390122 48.2962963 149.453267 47.8689459 149.516411 46.7293447 149.76899 52.997151 149.89528 55.988604 150.021569 55.1339031 150.084714 55.8461538 150.147859 55.1339031 150.400438 54.4216524 150.716161 53.5669516 150.842451 53.1396011 150.905596 53.5669516 150.96874 52.997151 151.031885 50.8603989 151.095029 45.8746439 151.284464 14.2507123 151.347609 18.3817664 151.473898 45.4472934 151.663332 95.7321937 151.726477 97.1566952 152.231635 46.7293447 152.421069 39.4643875 152.610503 37.8974359 152.863082 37.3276353 152.926227 37.7549858 153.052516 36.4729345 153.36824 35.048433 153.431385 34.3361823 153.683964 31.4871795 153.873398 29.3504274 154.189121 23.3675214 154.631135 15.1054131 155.010003 17.0997151 155.136292 20.6609687 155.262582 26.2165242 155.704595 53.7094017 155.957174 61.1168091 156.083464 62.6837607 156.209753 63.1111111 156.399187 63.3960114 156.588621 62.5413105 156.778056 63.1111111 156.904345 62.2564103 157.283213 59.5498575 157.535793 57.4131054 157.788371 55.7037037 158.104095 53.5669516 158.293529 52.997151 158.482964 52.1424501 158.546108 52.8547009 158.735542 52.1424501 159.051266 53.5669516 159.177555 52.997151 159.430135 54.2792023 159.556424 53.7094017 159.745858 53.1396011 159.872148 53.8518519 160.061582 53.2820513 160.251016 53.994302 160.44045 53.2820513 160.693029 52.8547009 160.882463 53.7094017 161.008753 52.997151 161.387621 52.4273504 161.6402 52.8547009 161.892779 44.8774929 162.019069 45.3048433 162.271647 43.4529915 162.334792 44.3076923 162.461082 47.2991453 162.650516 46.1595442 162.776805 47.2991453 162.903095 51.5726496 163.029384 55.4188034 163.218818 54.2792023 163.534542 53.1396011 163.91341 52.2849003 164.102845 51.5726496 164.165989 48.5811966 164.355423 17.2421652 164.418568 19.9487179 164.544858 45.1623932 164.734292 94.5925926 164.797436 98.1538462 164.923726 83.9088319 165.302594 46.1595442 165.492029 38.4672365 165.618318 37.4700855 165.934042 35.9031339 166.123476 35.6182336 166.31291 33.1965812 166.565489 32.4843305 166.754923 29.6353276 166.944358 27.0712251 167.449515 17.2421652 167.63895 12.968661 167.891528 12.3988604 168.207252 16.8148148 168.396686 26.5014245 168.838699 54.5641026 169.091279 61.8290598 169.217568 63.1111111 169.407002 63.6809117 169.470147 63.1111111 169.722726 62.8262108 169.849015 62.2564103 170.227884 60.4045584 170.733042 57.4131054 171.048765 54.5641026 171.427633 52.997151 171.617068 53.5669516 171.743357 52.8547009 171.932791 53.8518519 172.059081 53.2820513 172.31166 53.994302 172.501094 53.7094017 172.690529 54.5641026 172.943107 54.2792023 173.195686 53.5669516 173.38512 54.2792023 173.637699 53.994302 174.016568 53.7094017 174.206002 53.994302 174.269147 53.5669516 174.395436 53.994302 174.458581 53.2820513 174.58487 52.4273504 174.774305 47.1566952 174.900594 46.1595442 174.963738 45.7321937 175.153173 43.5954416 175.279462 45.4472934 175.405752 48.8660969 175.532041 47.5840456 175.721476 48.011396 175.847765 52.5698006 175.974054 56.8433048 176.289778 53.994302 176.479212 55.1339031 176.605502 54.4216524 176.794936 53.5669516 176.98437 52.997151 177.047515 50.8603989 177.11066 46.5868946 177.300094 14.6780627 177.363239 18.2393162 177.489528 45.7321937 177.678962 99.4358974 177.742107 102 178.31041 42.8831909 178.436699 38.6096866 178.689278 36.6153846 178.878712 35.6182336 179.068146 34.6210826 179.320725 33.0541311 179.447015 32.4843305 179.699594 29.2079772 179.889028 27.0712251 180.141607 21.3732194 180.267896 19.2364672 180.520475 13.2535613 180.773054 11.1168091 180.962488 11.4017094 181.025633 12.5413105 181.278212 22.3703704 181.530791 39.1794872 181.720225 50.7179487 181.972804 60.1196581 182.099093 62.5413105 182.225383 63.1111111 182.351673 64.2507123 182.477962 63.2535613 182.730541 62.5413105 183.109409 61.1168091 183.172554 60.6894587 183.551422 58.1253561 183.804001 55.988604 184.05658 54.5641026 184.18287 53.2820513 184.498593 52.2849003 184.688027 53.5669516 184.940607 52.5698006 185.13004 53.2820513 185.25633 52.8547009 185.319475 53.2820513 185.572054 53.994302 185.887778 53.2820513 185.950922 53.7094017 186.140356 53.2820513 186.203501 53.8518519 186.329791 53.2820513 186.582369 52.5698006 186.645514 53.1396011 186.708659 54.2792023 186.834949 53.5669516 187.024383 53.1396011 187.213817 53.5669516 187.340106 52.997151 187.466396 52.5698006 187.718975 45.019943 187.845264 46.1595442 188.034698 43.5954416 188.287277 48.1538462 188.413567 47.5840456 188.476712 46.7293447 188.539856 47.4415954 188.666145 51.7150997 188.792435 56.1310541 189.045014 53.994302 189.171303 55.8461538 189.423883 53.994302 189.613317 54.2792023 189.802751 53.2820513 189.865896 52.8547009 189.929041 51.1452991 189.992185 47.5840456 190.181619 13.6809117 190.244764 14.3931624 190.371054 39.4643875 190.560488 97.014245 190.623632 101.002849 190.686777 96.3019943 190.876211 73.9373219 191.002501 62.3988604 191.25508 41.4586895 191.444514 37.1851852 191.570803 37.8974359 191.760237 37.1851852 191.886527 36.7578348 192.32854 33.1965812 192.644264 30.0626781 192.770553 28.2108262 192.896843 27.0712251 193.465146 15.3903134 193.591435 13.965812 193.780869 15.1054131 193.907159 16.8148148 194.096593 21.3732194 194.412316 39.3219373 194.664895 53.1396011 194.854329 59.5498575 194.980619 61.8290598 195.106908 62.3988604 195.296342 63.2535613 195.485777 62.5413105 195.738356 62.2564103 195.864645 61.5441595 196.117224 60.4045584 196.306658 57.8404558 196.496093 57.2706553 196.685527 55.2763533 196.938106 54.5641026 197.190685 51.8575499 197.316974 53.2820513 197.506408 52.4273504 197.632698 53.2820513 197.822132 52.997151 198.011566 53.2820513 198.074711 53.8518519 198.264145 53.2820513 198.453579 53.5669516 198.643014 54.2792023 198.769303 53.7094017 198.958737 54.2792023 199.148171 53.2820513 199.211316 53.8518519 199.590185 53.2820513 199.716474 52.5698006 199.842763 52.997151 199.969053 51.8575499 200.158487 46.1595442 200.347921 46.5868946 200.537356 45.019943 200.6005 45.7321937 200.72679 48.2962963 201.042513 51.1452991 201.231947 55.2763533 201.358237 56.1310541 201.547671 55.2763533 201.737105 55.7037037 201.863395 54.991453 201.989684 54.2792023 202.115974 54.7065527 202.305408 53.1396011 202.431697 49.5783476 202.494842 43.1680912"></polyline>
                <rect id="Rectangle" x="1" y="0.5" width="201.899994" height="103"></rect>
            </g>
        </g>
    </g>
</svg>