<?xml version="1.0" encoding="UTF-8"?>
<svg width="298px" height="202px" viewBox="0 0 298 202" version="1.1" xmlns="http://www.w3.org/2000/svg" xmlns:xlink="http://www.w3.org/1999/xlink">
    <!-- Generator: Sketch 48.1 (47250) - http://www.bohemiancoding.com/sketch -->
    <title>latency</title>
    <desc>Created with Sketch.</desc>
    <defs></defs>
    <g id="Page-1" stroke="none" stroke-width="1" fill="none" fill-rule="evenodd">
        <g id="latency" transform="translate(-3.000000, 0.000000)">
            <path d="M36.66106,105 L300.595529,105" id="Stroke-35" stroke-opacity="0.2" stroke="#000000" stroke-width="0.5" stroke-linejoin="round" stroke-dasharray="6,6"></path>
            <path d="M36.66106,35 L300.595529,35" id="Stroke-38" stroke-opacity="0.2" stroke="#000000" stroke-width="0.5" stroke-linejoin="round" stroke-dasharray="6,6"></path>
            <path d="M36.66106,175 L300.595529,175" id="Stroke-41" stroke="#000000" stroke-linejoin="round"></path>
            <path d="M36.66106,175.14773 L36.66106,0.96" id="Stroke-42" stroke="#000000" stroke-linejoin="round"></path>
            <g id="xlabels" transform="translate(87.000000, 174.000000)" fill="#000000" font-family="Helvetica" font-size="11.95517" font-weight="normal">
                <text id="10">
                    <tspan x="0.0396" y="11.9383653">10</tspan>
                </text>
                <text id="20">
                    <tspan x="76.271" y="11.9383653">20</tspan>
                </text>
                <text id="30">
                    <tspan x="152.5025" y="11.9383653">30</tspan>
                </text>
                <text id="Number-of-concurrent">
                    <tspan x="0.339" y="26.0804453">Number of concurrent streams</tspan>
                </text>
            </g>
            <g id="ylabels" transform="translate(0.000000, 28.000000)" fill="#000000" font-family="Helvetica" font-size="11.95517" font-weight="normal">
                <text id="0">
                    <tspan x="26.80807" y="150.367325">0</tspan>
                </text>
                <text id="50">
                    <tspan x="20.95508" y="80.6921853">50</tspan>
                </text>
                <text id="100">
                    <tspan x="15.10209" y="11.0170853">100</tspan>
                </text>
                <text id="Latency-(ms)" transform="translate(7.830650, 71.734775) rotate(-90.000000) translate(-7.830650, -71.734775) ">
                    <tspan x="-27.16935" y="75.7347753">Latency (ms)</tspan>
                </text>
            </g>
            <g id="bars" transform="translate(70.000000, 16.000000)" stroke="#000000">
                <polygon id="Fill-5" fill="#006BA4" points="0.0231 159.14773 22.8925 159.14773 22.8925 97.8336 0.0231 97.8336"></polygon>
                <polygon id="Fill-9" fill="#006BA4" points="76.2546 159.14773 99.124 159.14773 99.124 92.2596 76.2546 92.2596"></polygon>
                <polygon id="Fill-13" fill="#006BA4" points="152.4861 159.14773 175.3555 159.14773 175.3555 65.7831 152.4861 65.7831"></polygon>
                <polygon id="Fill-17" fill="#A2C8EC" points="22.8925 159.14773 45.762 159.14773 45.762 61.6026 22.8925 61.6026"></polygon>
                <polygon id="Fill-21" fill="#A2C8EC" points="99.124 159.14773 121.9935 159.14773 121.9935 39.3066 99.124 39.3066"></polygon>
                <polygon id="Fill-25" fill="#A2C8EC" points="175.3555 159.14773 198.225 159.14773 198.225 0.2885 175.3555 0.2885"></polygon>
            </g>
            <g id="legend" transform="translate(42.000000, 6.000000)">
                <polygon id="Stroke-44" stroke="#000000" stroke-width="0.8" fill="#FFFFFF" stroke-linejoin="round" points="0.66106 38.8441 80.6228 38.8441 80.6228 0.96 0.66106 0.96"></polygon>
                <polygon id="Fill-45" stroke="#000000" fill="#006BA4" points="5.46106 14.6306 29.46106 14.6306 29.46106 6.2306 5.46106 6.2306"></polygon>
                <polygon id="Fill-47" stroke="#000000" fill="#A2C8EC" points="5.46106 31.7727 29.46106 31.7727 29.46106 23.3727 5.46106 23.3727"></polygon>
                <text id="50%ile" font-family="Helvetica" font-size="11.95517" font-weight="normal" fill="#000000">
                    <tspan x="36.06106" y="14.5505853">50%ile</tspan>
                </text>
                <text id="98%ile" font-family="Helvetica" font-size="11.95517" font-weight="normal" fill="#000000">
                    <tspan x="36.06106" y="31.6926853">98%ile</tspan>
                </text>
            </g>
        </g>
    </g>
</svg>