<?xml version="1.0" encoding="UTF-8"?>
<svg width="223px" height="238px" viewBox="0 0 223 238" version="1.1" xmlns="http://www.w3.org/2000/svg" xmlns:xlink="http://www.w3.org/1999/xlink">
    <!-- Generator: Sketch 47.1 (45422) - http://www.bohemiancoding.com/sketch -->
    <title>ds2_architecture</title>
    <desc>Created with Sketch.</desc>
    <defs></defs>
    <g id="Page-1" stroke="none" stroke-width="1" fill="none" fill-rule="evenodd">
        <g id="ds2_architecture" transform="translate(-1.000000, 1.000000)">
            <g id="ctc" transform="translate(62.000000, 0.000000)">
                <path d="M100.050456,3.47022 L100.050456,8.97998 C100.050456,10.8818252 98.5084122,12.42358 96.6068562,12.42358 L4.16561814,12.42358 C2.26378674,12.42358 0.722018144,10.8818252 0.722018144,8.97998 L0.722018144,3.47022 C0.722018144,1.56837482 2.26378674,0.02662 4.16561814,0.02662 L96.6068562,0.02662 C98.5084122,0.02662 100.050456,1.56837482 100.050456,3.47022 Z" id="Stroke-23" stroke="#000000" stroke-linecap="round" stroke-linejoin="round"></path>
                <text id="CTC" font-family="Helvetica-Light, Helvetica" font-size="8" font-weight="300" fill="#000000">
                    <tspan x="42.5" y="9">CTC</tspan>
                </text>
            </g>
            <g id="spec" transform="translate(62.000000, 223.000000)">
                <path d="M100.050456,3.6155 L100.050456,9.12526 C100.050456,11.0270914 98.5084122,12.56886 96.6068562,12.56886 L4.16561814,12.56886 C2.26378674,12.56886 0.722018144,11.0270914 0.722018144,9.12526 L0.722018144,3.6155 C0.722018144,1.71366859 2.26378674,0.1719 4.16561814,0.1719 L96.6068562,0.1719 C98.5084122,0.1719 100.050456,1.71366859 100.050456,3.6155 Z" id="Stroke-25" stroke="#000000" stroke-linecap="round" stroke-linejoin="round"></path>
                <text id="Spectrogram" font-family="Helvetica-Light, Helvetica" font-size="8" font-weight="300" fill="#000000">
                    <tspan x="26.236" y="9">Spectrogram</tspan>
                </text>
            </g>
            <g id="layer" transform="translate(62.000000, 18.000000)">
                <path d="M21.5682,8.9905 C20.3579,10.2009 18.3955,10.2009 17.1852,8.9905 C15.9749,7.7802 15.9749,5.8179 17.1852,4.6076 C18.3955,3.3972 20.3579,3.3972 21.5682,4.6076 C22.7785,5.8179 22.7785,7.7802 21.5682,8.9905" id="Fill-27" fill="#FFC88B"></path>
                <path d="M21.5681951,8.99051077 C20.3579074,10.2008397 18.3955376,10.2008397 17.1852499,8.99051077 C15.9748934,7.78018179 15.9748934,5.81785321 17.1852499,4.60752423 C18.3955376,3.39719526 20.3579074,3.39719526 21.5681951,4.60752423 C22.7785516,5.81785321 22.7785516,7.78018179 21.5681951,8.99051077" id="Stroke-29" stroke="#000000" stroke-linecap="round" stroke-linejoin="round"></path>
                <path d="M83.553,8.9905 C82.3427,10.2009 80.3803,10.2009 79.17,8.9905 C77.9597,7.7802 77.9597,5.8179 79.17,4.6076 C80.3803,3.3972 82.3427,3.3972 83.553,4.6076 C84.7633,5.8179 84.7633,7.7802 83.553,8.9905" id="Fill-30" fill="#FFC88B"></path>
                <path d="M83.5528574,8.99051077 C82.3427763,10.2008397 80.380613,10.2008397 79.1698433,8.99051077 C77.9597622,7.78018179 77.9597622,5.81785321 79.1698433,4.60752423 C80.380613,3.39719526 82.3427763,3.39719526 83.5528574,4.60752423 C84.7636271,5.81785321 84.7636271,7.78018179 83.5528574,8.99051077" id="Stroke-31" stroke="#000000" stroke-linecap="round" stroke-linejoin="round"></path>
                <path d="M71.156,8.9905 C69.9457,10.2009 67.9833,10.2009 66.773,8.9905 C65.5627,7.7802 65.5627,5.8179 66.773,4.6076 C67.9833,3.3972 69.9457,3.3972 71.156,4.6076 C72.3664,5.8179 72.3664,7.7802 71.156,8.9905" id="Fill-32" fill="#FFC88B"></path>
                <path d="M71.1558974,8.99051077 C69.9458163,10.2008397 67.983653,10.2008397 66.7728833,8.99051077 C65.5628022,7.78018179 65.5628022,5.81785321 66.7728833,4.60752423 C67.983653,3.39719526 69.9458163,3.39719526 71.1558974,4.60752423 C72.3666671,5.81785321 72.3666671,7.78018179 71.1558974,8.99051077" id="Stroke-33" stroke="#000000" stroke-linecap="round" stroke-linejoin="round"></path>
                <path d="M58.759,8.9905 C57.5487,10.2009 55.5864,10.2009 54.3761,8.9905 C53.1657,7.7802 53.1657,5.8179 54.3761,4.6076 C55.5864,3.3972 57.5487,3.3972 58.759,4.6076 C59.9694,5.8179 59.9694,7.7802 58.759,8.9905" id="Fill-34" fill="#FFC88B"></path>
                <path d="M58.7590751,8.99051077 C57.5487874,10.2008397 55.5864176,10.2008397 54.3761299,8.99051077 C53.1657734,7.78018179 53.1657734,5.81785321 54.3761299,4.60752423 C55.5864176,3.39719526 57.5487874,3.39719526 58.7590751,4.60752423 C59.9694316,5.81785321 59.9694316,7.78018179 58.7590751,8.99051077" id="Stroke-35" stroke="#000000" stroke-linecap="round" stroke-linejoin="round"></path>
                <path d="M46.3621,8.9905 C45.1518,10.2009 43.1894,10.2009 41.9791,8.9905 C40.7688,7.7802 40.7688,5.8179 41.9791,4.6076 C43.1894,3.3972 45.1518,3.3972 46.3621,4.6076 C47.5724,5.8179 47.5724,7.7802 46.3621,8.9905" id="Fill-36" fill="#FFC88B"></path>
                <path d="M46.3621151,8.99051077 C45.1518274,10.2008397 43.1894576,10.2008397 41.9791699,8.99051077 C40.7688134,7.78018179 40.7688134,5.81785321 41.9791699,4.60752423 C43.1894576,3.39719526 45.1518274,3.39719526 46.3621151,4.60752423 C47.5724716,5.81785321 47.5724716,7.78018179 46.3621151,8.99051077" id="Stroke-37" stroke="#000000" stroke-linecap="round" stroke-linejoin="round"></path>
                <path d="M33.9651,8.9905 C32.7548,10.2009 30.7925,10.2009 29.5822,8.9905 C28.3718,7.7802 28.3718,5.8179 29.5822,4.6076 C30.7925,3.3972 32.7548,3.3972 33.9651,4.6076 C35.1755,5.8179 35.1755,7.7802 33.9651,8.9905" id="Fill-38" fill="#FFC88B"></path>
                <path d="M33.9651551,8.99051077 C32.7548674,10.2008397 30.7924976,10.2008397 29.5822099,8.99051077 C28.3718534,7.78018179 28.3718534,5.81785321 29.5822099,4.60752423 C30.7924976,3.39719526 32.7548674,3.39719526 33.9651551,4.60752423 C35.1755116,5.81785321 35.1755116,7.78018179 33.9651551,8.99051077" id="Stroke-39" stroke="#000000" stroke-linecap="round" stroke-linejoin="round"></path>
                <path d="M9.1712,8.9905 C7.9609,10.2009 5.9985,10.2009 4.7882,8.9905 C3.5779,7.7802 3.5779,5.8179 4.7882,4.6076 C5.9985,3.3972 7.9609,3.3972 9.1712,4.6076 C10.3816,5.8179 10.3816,7.7802 9.1712,8.9905" id="Fill-40" fill="#FFC88B"></path>
                <path d="M9.1712351,8.99051077 C7.96094745,10.2008397 5.99857755,10.2008397 4.7882899,8.99051077 C3.57793337,7.78018179 3.57793337,5.81785321 4.7882899,4.60752423 C5.99857755,3.39719526 7.96094745,3.39719526 9.1712351,4.60752423 C10.3815916,5.81785321 10.3815916,7.78018179 9.1712351,8.99051077" id="Stroke-41" stroke="#000000" stroke-linecap="round" stroke-linejoin="round"></path>
                <path d="M95.9499,8.9905 C94.7396,10.2009 92.7773,10.2009 91.567,8.9905 C90.3566,7.7802 90.3566,5.8179 91.567,4.6076 C92.7773,3.3972 94.7396,3.3972 95.9499,4.6076 C97.1603,5.8179 97.1603,7.7802 95.9499,8.9905" id="Fill-42" fill="#FFC88B"></path>
                <path d="M95.9498174,8.99051077 C94.7397363,10.2008397 92.777573,10.2008397 91.5668033,8.99051077 C90.3567222,7.78018179 90.3567222,5.81785321 91.5668033,4.60752423 C92.777573,3.39719526 94.7397363,3.39719526 95.9498174,4.60752423 C97.1605871,5.81785321 97.1605871,7.78018179 95.9498174,8.99051077" id="Stroke-43" stroke="#000000" stroke-linecap="round" stroke-linejoin="round"></path>
                <path d="M100.071118,4.08625273 L100.071118,9.59601273 C100.071118,11.4978648 98.5290738,13.0396127 96.6275178,13.0396127 L4.14502542,13.0396127 C2.24319401,13.0396127 0.701425416,11.4978648 0.701425416,9.59601273 L0.701425416,4.08625273 C0.701425416,2.18440755 2.24319401,0.642652728 4.14502542,0.642652728 L96.6275178,0.642652728 C98.5290738,0.642652728 100.071118,2.18440755 100.071118,4.08625273 Z" id="Stroke-21" stroke="#000000" stroke-linecap="round" stroke-linejoin="round"></path>
            </g>
            <g id="layer" transform="translate(62.000000, 37.000000)">
                <path d="M21.5682,8.586 C20.3579,9.7963 18.3955,9.7963 17.1852,8.586 C15.9749,7.3757 15.9749,5.4133 17.1852,4.203 C18.3955,2.9926 20.3579,2.9926 21.5682,4.203 C22.7785,5.4133 22.7785,7.3757 21.5682,8.586" id="Fill-44" fill="#007FB3"></path>
                <path d="M21.5681951,8.58595077 C20.3579074,9.79627974 18.3955376,9.79627974 17.1852499,8.58595077 C15.9748934,7.37562179 15.9748934,5.41329321 17.1852499,4.20296423 C18.3955376,2.99263526 20.3579074,2.99263526 21.5681951,4.20296423 C22.7785516,5.41329321 22.7785516,7.37562179 21.5681951,8.58595077" id="Stroke-45" stroke="#000000" stroke-linecap="round" stroke-linejoin="round"></path>
                <path d="M83.553,8.586 C82.3427,9.7963 80.3803,9.7963 79.17,8.586 C77.9597,7.3757 77.9597,5.4133 79.17,4.203 C80.3803,2.9926 82.3427,2.9926 83.553,4.203 C84.7633,5.4133 84.7633,7.3757 83.553,8.586" id="Fill-46" fill="#007FB3"></path>
                <path d="M83.5528574,8.58595077 C82.3427763,9.79627974 80.380613,9.79627974 79.1698433,8.58595077 C77.9597622,7.37562179 77.9597622,5.41329321 79.1698433,4.20296423 C80.380613,2.99263526 82.3427763,2.99263526 83.5528574,4.20296423 C84.7636271,5.41329321 84.7636271,7.37562179 83.5528574,8.58595077" id="Stroke-47" stroke="#000000" stroke-linecap="round" stroke-linejoin="round"></path>
                <path d="M71.156,8.586 C69.9457,9.7963 67.9833,9.7963 66.773,8.586 C65.5627,7.3757 65.5627,5.4133 66.773,4.203 C67.9833,2.9926 69.9457,2.9926 71.156,4.203 C72.3664,5.4133 72.3664,7.3757 71.156,8.586" id="Fill-48" fill="#007FB3"></path>
                <path d="M71.1558974,8.58595077 C69.9458163,9.79627974 67.983653,9.79627974 66.7728833,8.58595077 C65.5628022,7.37562179 65.5628022,5.41329321 66.7728833,4.20296423 C67.983653,2.99263526 69.9458163,2.99263526 71.1558974,4.20296423 C72.3666671,5.41329321 72.3666671,7.37562179 71.1558974,8.58595077" id="Stroke-49" stroke="#000000" stroke-linecap="round" stroke-linejoin="round"></path>
                <path d="M58.759,8.586 C57.5487,9.7963 55.5864,9.7963 54.3761,8.586 C53.1657,7.3757 53.1657,5.4133 54.3761,4.203 C55.5864,2.9926 57.5487,2.9926 58.759,4.203 C59.9694,5.4133 59.9694,7.3757 58.759,8.586" id="Fill-50" fill="#007FB3"></path>
                <path d="M58.7590751,8.58595077 C57.5487874,9.79627974 55.5864176,9.79627974 54.3761299,8.58595077 C53.1657734,7.37562179 53.1657734,5.41329321 54.3761299,4.20296423 C55.5864176,2.99263526 57.5487874,2.99263526 58.7590751,4.20296423 C59.9694316,5.41329321 59.9694316,7.37562179 58.7590751,8.58595077" id="Stroke-51" stroke="#000000" stroke-linecap="round" stroke-linejoin="round"></path>
                <path d="M46.3621,8.586 C45.1518,9.7963 43.1894,9.7963 41.9791,8.586 C40.7688,7.3757 40.7688,5.4133 41.9791,4.203 C43.1894,2.9926 45.1518,2.9926 46.3621,4.203 C47.5724,5.4133 47.5724,7.3757 46.3621,8.586" id="Fill-52" fill="#007FB3"></path>
                <path d="M46.3621151,8.58595077 C45.1518274,9.79627974 43.1894576,9.79627974 41.9791699,8.58595077 C40.7688134,7.37562179 40.7688134,5.41329321 41.9791699,4.20296423 C43.1894576,2.99263526 45.1518274,2.99263526 46.3621151,4.20296423 C47.5724716,5.41329321 47.5724716,7.37562179 46.3621151,8.58595077" id="Stroke-53" stroke="#000000" stroke-linecap="round" stroke-linejoin="round"></path>
                <path d="M33.9651,8.586 C32.7548,9.7963 30.7925,9.7963 29.5822,8.586 C28.3718,7.3757 28.3718,5.4133 29.5822,4.203 C30.7925,2.9926 32.7548,2.9926 33.9651,4.203 C35.1755,5.4133 35.1755,7.3757 33.9651,8.586" id="Fill-54" fill="#007FB3"></path>
                <path d="M33.9651551,8.58595077 C32.7548674,9.79627974 30.7924976,9.79627974 29.5822099,8.58595077 C28.3718534,7.37562179 28.3718534,5.41329321 29.5822099,4.20296423 C30.7924976,2.99263526 32.7548674,2.99263526 33.9651551,4.20296423 C35.1755116,5.41329321 35.1755116,7.37562179 33.9651551,8.58595077" id="Stroke-55" stroke="#000000" stroke-linecap="round" stroke-linejoin="round"></path>
                <path d="M9.1712,8.586 C7.9609,9.7963 5.9985,9.7963 4.7882,8.586 C3.5779,7.3757 3.5779,5.4133 4.7882,4.203 C5.9985,2.9926 7.9609,2.9926 9.1712,4.203 C10.3816,5.4133 10.3816,7.3757 9.1712,8.586" id="Fill-56" fill="#007FB3"></path>
                <path d="M9.1712351,8.58595077 C7.96094745,9.79627974 5.99857755,9.79627974 4.7882899,8.58595077 C3.57793337,7.37562179 3.57793337,5.41329321 4.7882899,4.20296423 C5.99857755,2.99263526 7.96094745,2.99263526 9.1712351,4.20296423 C10.3815916,5.41329321 10.3815916,7.37562179 9.1712351,8.58595077" id="Stroke-57" stroke="#000000" stroke-linecap="round" stroke-linejoin="round"></path>
                <path d="M95.9499,8.586 C94.7396,9.7963 92.7773,9.7963 91.567,8.586 C90.3566,7.3757 90.3566,5.4133 91.567,4.203 C92.7773,2.9926 94.7396,2.9926 95.9499,4.203 C97.1603,5.4133 97.1603,7.3757 95.9499,8.586" id="Fill-58" fill="#007FB3"></path>
                <path d="M95.9498174,8.58595077 C94.7397363,9.79627974 92.777573,9.79627974 91.5668033,8.58595077 C90.3567222,7.37562179 90.3567222,5.41329321 91.5668033,4.20296423 C92.777573,2.99263526 94.7397363,2.99263526 95.9498174,4.20296423 C97.1605871,5.41329321 97.1605871,7.37562179 95.9498174,8.58595077" id="Stroke-59" stroke="#000000" stroke-linecap="round" stroke-linejoin="round"></path>
                <path d="M100.050456,3.6611 L100.050456,9.17086 C100.050456,11.0727052 98.5084122,12.61446 96.6068562,12.61446 L4.16561814,12.61446 C2.26378674,12.61446 0.722018144,11.0727052 0.722018144,9.17086 L0.722018144,3.6611 C0.722018144,1.75925482 2.26378674,0.2175 4.16561814,0.2175 L96.6068562,0.2175 C98.5084122,0.2175 100.050456,1.75925482 100.050456,3.6611 Z" id="Stroke-19" stroke="#000000" stroke-linecap="round" stroke-linejoin="round"></path>
            </g>
            <g id="layer" transform="translate(62.000000, 55.000000)">
                <path d="M21.5682,9.1814 C20.3579,10.3917 18.3955,10.3917 17.1852,9.1814 C15.9749,7.9711 15.9749,6.0087 17.1852,4.7984 C18.3955,3.5881 20.3579,3.5881 21.5682,4.7984 C22.7785,6.0087 22.7785,7.9711 21.5682,9.1814" id="Fill-60" fill="#007FB3"></path>
                <path d="M21.5681951,9.1813701 C20.3579074,10.3917266 18.3955376,10.3917266 17.1852499,9.1813701 C15.9748934,7.97108245 15.9748934,6.00873321 17.1852499,4.79840423 C18.3955376,3.58807526 20.3579074,3.58807526 21.5681951,4.79840423 C22.7785516,6.00873321 22.7785516,7.97108245 21.5681951,9.1813701" id="Stroke-61" stroke="#000000" stroke-linecap="round" stroke-linejoin="round"></path>
                <path d="M83.553,9.1814 C82.3427,10.3917 80.3803,10.3917 79.17,9.1814 C77.9597,7.9711 77.9597,6.0087 79.17,4.7984 C80.3803,3.5881 82.3427,3.5881 83.553,4.7984 C84.7633,6.0087 84.7633,7.9711 83.553,9.1814" id="Fill-62" fill="#007FB3"></path>
                <path d="M83.5528574,9.1813701 C82.3427763,10.3917266 80.380613,10.3917266 79.1698433,9.1813701 C77.9597622,7.97108245 77.9597622,6.00873321 79.1698433,4.79840423 C80.380613,3.58807526 82.3427763,3.58807526 83.5528574,4.79840423 C84.7636271,6.00873321 84.7636271,7.97108245 83.5528574,9.1813701" id="Stroke-63" stroke="#000000" stroke-linecap="round" stroke-linejoin="round"></path>
                <path d="M71.156,9.1814 C69.9457,10.3917 67.9833,10.3917 66.773,9.1814 C65.5627,7.9711 65.5627,6.0087 66.773,4.7984 C67.9833,3.5881 69.9457,3.5881 71.156,4.7984 C72.3664,6.0087 72.3664,7.9711 71.156,9.1814" id="Fill-64" fill="#007FB3"></path>
                <path d="M71.1558974,9.1813701 C69.9458163,10.3917266 67.983653,10.3917266 66.7728833,9.1813701 C65.5628022,7.97108245 65.5628022,6.00873321 66.7728833,4.79840423 C67.983653,3.58807526 69.9458163,3.58807526 71.1558974,4.79840423 C72.3666671,6.00873321 72.3666671,7.97108245 71.1558974,9.1813701" id="Stroke-65" stroke="#000000" stroke-linecap="round" stroke-linejoin="round"></path>
                <path d="M58.759,9.1814 C57.5487,10.3917 55.5864,10.3917 54.3761,9.1814 C53.1657,7.9711 53.1657,6.0087 54.3761,4.7984 C55.5864,3.5881 57.5487,3.5881 58.759,4.7984 C59.9694,6.0087 59.9694,7.9711 58.759,9.1814" id="Fill-66" fill="#007FB3"></path>
                <path d="M58.7590751,9.1813701 C57.5487874,10.3917266 55.5864176,10.3917266 54.3761299,9.1813701 C53.1657734,7.97108245 53.1657734,6.00873321 54.3761299,4.79840423 C55.5864176,3.58807526 57.5487874,3.58807526 58.7590751,4.79840423 C59.9694316,6.00873321 59.9694316,7.97108245 58.7590751,9.1813701" id="Stroke-67" stroke="#000000" stroke-linecap="round" stroke-linejoin="round"></path>
                <path d="M46.3621,9.1814 C45.1518,10.3917 43.1894,10.3917 41.9791,9.1814 C40.7688,7.9711 40.7688,6.0087 41.9791,4.7984 C43.1894,3.5881 45.1518,3.5881 46.3621,4.7984 C47.5724,6.0087 47.5724,7.9711 46.3621,9.1814" id="Fill-68" fill="#007FB3"></path>
                <path d="M46.3621151,9.1813701 C45.1518274,10.3917266 43.1894576,10.3917266 41.9791699,9.1813701 C40.7688134,7.97108245 40.7688134,6.00873321 41.9791699,4.79840423 C43.1894576,3.58807526 45.1518274,3.58807526 46.3621151,4.79840423 C47.5724716,6.00873321 47.5724716,7.97108245 46.3621151,9.1813701" id="Stroke-69" stroke="#000000" stroke-linecap="round" stroke-linejoin="round"></path>
                <path d="M33.9651,9.1814 C32.7548,10.3917 30.7925,10.3917 29.5822,9.1814 C28.3718,7.9711 28.3718,6.0087 29.5822,4.7984 C30.7925,3.5881 32.7548,3.5881 33.9651,4.7984 C35.1755,6.0087 35.1755,7.9711 33.9651,9.1814" id="Fill-70" fill="#007FB3"></path>
                <path d="M33.9651551,9.1813701 C32.7548674,10.3917266 30.7924976,10.3917266 29.5822099,9.1813701 C28.3718534,7.97108245 28.3718534,6.00873321 29.5822099,4.79840423 C30.7924976,3.58807526 32.7548674,3.58807526 33.9651551,4.79840423 C35.1755116,6.00873321 35.1755116,7.97108245 33.9651551,9.1813701" id="Stroke-71" stroke="#000000" stroke-linecap="round" stroke-linejoin="round"></path>
                <path d="M9.1712,9.1814 C7.9609,10.3917 5.9985,10.3917 4.7882,9.1814 C3.5779,7.9711 3.5779,6.0087 4.7882,4.7984 C5.9985,3.5881 7.9609,3.5881 9.1712,4.7984 C10.3816,6.0087 10.3816,7.9711 9.1712,9.1814" id="Fill-72" fill="#007FB3"></path>
                <path d="M9.1712351,9.1813701 C7.96094745,10.3917266 5.99857755,10.3917266 4.7882899,9.1813701 C3.57793337,7.97108245 3.57793337,6.00873321 4.7882899,4.79840423 C5.99857755,3.58807526 7.96094745,3.58807526 9.1712351,4.79840423 C10.3815916,6.00873321 10.3815916,7.97108245 9.1712351,9.1813701" id="Stroke-73" stroke="#000000" stroke-linecap="round" stroke-linejoin="round"></path>
                <path d="M95.9499,9.1814 C94.7396,10.3917 92.7773,10.3917 91.567,9.1814 C90.3566,7.9711 90.3566,6.0087 91.567,4.7984 C92.7773,3.5881 94.7396,3.5881 95.9499,4.7984 C97.1603,6.0087 97.1603,7.9711 95.9499,9.1814" id="Fill-74" fill="#007FB3"></path>
                <path d="M95.9498174,9.1813701 C94.7397363,10.3917266 92.777573,10.3917266 91.5668033,9.1813701 C90.3567222,7.97108245 90.3567222,6.00873321 91.5668033,4.79840423 C92.777573,3.58807526 94.7397363,3.58807526 95.9498174,4.79840423 C97.1605871,6.00873321 97.1605871,7.97108245 95.9498174,9.1813701" id="Stroke-75" stroke="#000000" stroke-linecap="round" stroke-linejoin="round"></path>
                <path d="M100.050456,4.25654 L100.050456,9.7663 C100.050456,11.6681314 98.5084122,13.2099 96.6068562,13.2099 L4.16561814,13.2099 C2.26378674,13.2099 0.722018144,11.6681314 0.722018144,9.7663 L0.722018144,4.25654 C0.722018144,2.35469482 2.26378674,0.81294 4.16561814,0.81294 L96.6068562,0.81294 C98.5084122,0.81294 100.050456,2.35469482 100.050456,4.25654 Z" id="Stroke-17" stroke="#000000" stroke-linecap="round" stroke-linejoin="round"></path>
            </g>
            <g id="layer" transform="translate(62.000000, 74.000000)">
                <path d="M21.5682,8.7768 C20.3579,9.9872 18.3955,9.9872 17.1852,8.7768 C15.9749,7.5665 15.9749,5.6042 17.1852,4.3939 C18.3955,3.1835 20.3579,3.1835 21.5682,4.3939 C22.7785,5.6042 22.7785,7.5665 21.5682,8.7768" id="Fill-76" fill="#007FB3"></path>
                <path d="M21.5681951,8.7768101 C20.3579074,9.98716663 18.3955376,9.98716663 17.1852499,8.7768101 C15.9748934,7.56652245 15.9748934,5.60415255 17.1852499,4.3938649 C18.3955376,3.18350837 20.3579074,3.18350837 21.5681951,4.3938649 C22.7785516,5.60415255 22.7785516,7.56652245 21.5681951,8.7768101" id="Stroke-77" stroke="#000000" stroke-linecap="round" stroke-linejoin="round"></path>
                <path d="M83.553,8.7768 C82.3427,9.9872 80.3803,9.9872 79.17,8.7768 C77.9597,7.5665 77.9597,5.6042 79.17,4.3939 C80.3803,3.1835 82.3427,3.1835 83.553,4.3939 C84.7633,5.6042 84.7633,7.5665 83.553,8.7768" id="Fill-78" fill="#007FB3"></path>
                <path d="M83.5528574,8.7768101 C82.3427763,9.98716663 80.380613,9.98716663 79.1698433,8.7768101 C77.9597622,7.56652245 77.9597622,5.60415255 79.1698433,4.3938649 C80.380613,3.18350837 82.3427763,3.18350837 83.5528574,4.3938649 C84.7636271,5.60415255 84.7636271,7.56652245 83.5528574,8.7768101" id="Stroke-79" stroke="#000000" stroke-linecap="round" stroke-linejoin="round"></path>
                <path d="M71.156,8.7768 C69.9457,9.9872 67.9833,9.9872 66.773,8.7768 C65.5627,7.5665 65.5627,5.6042 66.773,4.3939 C67.9833,3.1835 69.9457,3.1835 71.156,4.3939 C72.3664,5.6042 72.3664,7.5665 71.156,8.7768" id="Fill-80" fill="#007FB3"></path>
                <path d="M71.1558974,8.7768101 C69.9458163,9.98716663 67.983653,9.98716663 66.7728833,8.7768101 C65.5628022,7.56652245 65.5628022,5.60415255 66.7728833,4.3938649 C67.983653,3.18350837 69.9458163,3.18350837 71.1558974,4.3938649 C72.3666671,5.60415255 72.3666671,7.56652245 71.1558974,8.7768101" id="Stroke-81" stroke="#000000" stroke-linecap="round" stroke-linejoin="round"></path>
                <path d="M58.759,8.7768 C57.5487,9.9872 55.5864,9.9872 54.3761,8.7768 C53.1657,7.5665 53.1657,5.6042 54.3761,4.3939 C55.5864,3.1835 57.5487,3.1835 58.759,4.3939 C59.9694,5.6042 59.9694,7.5665 58.759,8.7768" id="Fill-82" fill="#007FB3"></path>
                <path d="M58.7590751,8.7768101 C57.5487874,9.98716663 55.5864176,9.98716663 54.3761299,8.7768101 C53.1657734,7.56652245 53.1657734,5.60415255 54.3761299,4.3938649 C55.5864176,3.18350837 57.5487874,3.18350837 58.7590751,4.3938649 C59.9694316,5.60415255 59.9694316,7.56652245 58.7590751,8.7768101" id="Stroke-83" stroke="#000000" stroke-linecap="round" stroke-linejoin="round"></path>
                <path d="M46.3621,8.7768 C45.1518,9.9872 43.1894,9.9872 41.9791,8.7768 C40.7688,7.5665 40.7688,5.6042 41.9791,4.3939 C43.1894,3.1835 45.1518,3.1835 46.3621,4.3939 C47.5724,5.6042 47.5724,7.5665 46.3621,8.7768" id="Fill-84" fill="#007FB3"></path>
                <path d="M46.3621151,8.7768101 C45.1518274,9.98716663 43.1894576,9.98716663 41.9791699,8.7768101 C40.7688134,7.56652245 40.7688134,5.60415255 41.9791699,4.3938649 C43.1894576,3.18350837 45.1518274,3.18350837 46.3621151,4.3938649 C47.5724716,5.60415255 47.5724716,7.56652245 46.3621151,8.7768101" id="Stroke-85" stroke="#000000" stroke-linecap="round" stroke-linejoin="round"></path>
                <path d="M33.9651,8.7768 C32.7548,9.9872 30.7925,9.9872 29.5822,8.7768 C28.3718,7.5665 28.3718,5.6042 29.5822,4.3939 C30.7925,3.1835 32.7548,3.1835 33.9651,4.3939 C35.1755,5.6042 35.1755,7.5665 33.9651,8.7768" id="Fill-86" fill="#007FB3"></path>
                <path d="M33.9651551,8.7768101 C32.7548674,9.98716663 30.7924976,9.98716663 29.5822099,8.7768101 C28.3718534,7.56652245 28.3718534,5.60415255 29.5822099,4.3938649 C30.7924976,3.18350837 32.7548674,3.18350837 33.9651551,4.3938649 C35.1755116,5.60415255 35.1755116,7.56652245 33.9651551,8.7768101" id="Stroke-87" stroke="#000000" stroke-linecap="round" stroke-linejoin="round"></path>
                <path d="M9.1712,8.7768 C7.9609,9.9872 5.9985,9.9872 4.7882,8.7768 C3.5779,7.5665 3.5779,5.6042 4.7882,4.3939 C5.9985,3.1835 7.9609,3.1835 9.1712,4.3939 C10.3816,5.6042 10.3816,7.5665 9.1712,8.7768" id="Fill-88" fill="#007FB3"></path>
                <path d="M9.1712351,8.7768101 C7.96094745,9.98716663 5.99857755,9.98716663 4.7882899,8.7768101 C3.57793337,7.56652245 3.57793337,5.60415255 4.7882899,4.3938649 C5.99857755,3.18350837 7.96094745,3.18350837 9.1712351,4.3938649 C10.3815916,5.60415255 10.3815916,7.56652245 9.1712351,8.7768101" id="Stroke-89" stroke="#000000" stroke-linecap="round" stroke-linejoin="round"></path>
                <path d="M95.9499,8.7768 C94.7396,9.9872 92.7773,9.9872 91.567,8.7768 C90.3566,7.5665 90.3566,5.6042 91.567,4.3939 C92.7773,3.1835 94.7396,3.1835 95.9499,4.3939 C97.1603,5.6042 97.1603,7.5665 95.9499,8.7768" id="Fill-90" fill="#007FB3"></path>
                <path d="M95.9498174,8.7768101 C94.7397363,9.98716663 92.777573,9.98716663 91.5668033,8.7768101 C90.3567222,7.56652245 90.3567222,5.60415255 91.5668033,4.3938649 C92.777573,3.18350837 94.7397363,3.18350837 95.9498174,4.3938649 C97.1605871,5.60415255 97.1605871,7.56652245 95.9498174,8.7768101" id="Stroke-91" stroke="#000000" stroke-linecap="round" stroke-linejoin="round"></path>
                <path d="M100.050456,3.85198 L100.050456,9.36174 C100.050456,11.2635714 98.5084122,12.80534 96.6068562,12.80534 L4.16561814,12.80534 C2.26378674,12.80534 0.722018144,11.2635714 0.722018144,9.36174 L0.722018144,3.85198 C0.722018144,1.95014859 2.26378674,0.40838 4.16561814,0.40838 L96.6068562,0.40838 C98.5084122,0.40838 100.050456,1.95014859 100.050456,3.85198 Z" id="Stroke-15" stroke="#000000" stroke-linecap="round" stroke-linejoin="round"></path>
            </g>
            <g id="layer" transform="translate(62.000000, 93.000000)">
                <path d="M21.5682,8.3723 C20.3579,9.5826 18.3955,9.5826 17.1852,8.3723 C15.9749,7.162 15.9749,5.1996 17.1852,3.9893 C18.3955,2.779 20.3579,2.779 21.5682,3.9893 C22.7785,5.1996 22.7785,7.162 21.5682,8.3723" id="Fill-92" fill="#007FB3"></path>
                <path d="M21.5681951,8.3722501 C20.3579074,9.58260663 18.3955376,9.58260663 17.1852499,8.3722501 C15.9748934,7.16196245 15.9748934,5.19959255 17.1852499,3.9893049 C18.3955376,2.77894837 20.3579074,2.77894837 21.5681951,3.9893049 C22.7785516,5.19959255 22.7785516,7.16196245 21.5681951,8.3722501" id="Stroke-93" stroke="#000000" stroke-linecap="round" stroke-linejoin="round"></path>
                <path d="M83.553,8.3723 C82.3427,9.5826 80.3803,9.5826 79.17,8.3723 C77.9597,7.162 77.9597,5.1996 79.17,3.9893 C80.3803,2.779 82.3427,2.779 83.553,3.9893 C84.7633,5.1996 84.7633,7.162 83.553,8.3723" id="Fill-94" fill="#007FB3"></path>
                <path d="M83.5528574,8.3722501 C82.3427763,9.58260663 80.380613,9.58260663 79.1698433,8.3722501 C77.9597622,7.16196245 77.9597622,5.19959255 79.1698433,3.9893049 C80.380613,2.77894837 82.3427763,2.77894837 83.5528574,3.9893049 C84.7636271,5.19959255 84.7636271,7.16196245 83.5528574,8.3722501" id="Stroke-95" stroke="#000000" stroke-linecap="round" stroke-linejoin="round"></path>
                <path d="M71.156,8.3723 C69.9457,9.5826 67.9833,9.5826 66.773,8.3723 C65.5627,7.162 65.5627,5.1996 66.773,3.9893 C67.9833,2.779 69.9457,2.779 71.156,3.9893 C72.3664,5.1996 72.3664,7.162 71.156,8.3723" id="Fill-96" fill="#007FB3"></path>
                <path d="M71.1558974,8.3722501 C69.9458163,9.58260663 67.983653,9.58260663 66.7728833,8.3722501 C65.5628022,7.16196245 65.5628022,5.19959255 66.7728833,3.9893049 C67.983653,2.77894837 69.9458163,2.77894837 71.1558974,3.9893049 C72.3666671,5.19959255 72.3666671,7.16196245 71.1558974,8.3722501" id="Stroke-97" stroke="#000000" stroke-linecap="round" stroke-linejoin="round"></path>
                <path d="M58.759,8.3723 C57.5487,9.5826 55.5864,9.5826 54.3761,8.3723 C53.1657,7.162 53.1657,5.1996 54.3761,3.9893 C55.5864,2.779 57.5487,2.779 58.759,3.9893 C59.9694,5.1996 59.9694,7.162 58.759,8.3723" id="Fill-98" fill="#007FB3"></path>
                <path d="M58.7590751,8.3722501 C57.5487874,9.58260663 55.5864176,9.58260663 54.3761299,8.3722501 C53.1657734,7.16196245 53.1657734,5.19959255 54.3761299,3.9893049 C55.5864176,2.77894837 57.5487874,2.77894837 58.7590751,3.9893049 C59.9694316,5.19959255 59.9694316,7.16196245 58.7590751,8.3722501" id="Stroke-99" stroke="#000000" stroke-linecap="round" stroke-linejoin="round"></path>
                <path d="M46.3621,8.3723 C45.1518,9.5826 43.1894,9.5826 41.9791,8.3723 C40.7688,7.162 40.7688,5.1996 41.9791,3.9893 C43.1894,2.779 45.1518,2.779 46.3621,3.9893 C47.5724,5.1996 47.5724,7.162 46.3621,8.3723" id="Fill-100" fill="#007FB3"></path>
                <path d="M46.3621151,8.3722501 C45.1518274,9.58260663 43.1894576,9.58260663 41.9791699,8.3722501 C40.7688134,7.16196245 40.7688134,5.19959255 41.9791699,3.9893049 C43.1894576,2.77894837 45.1518274,2.77894837 46.3621151,3.9893049 C47.5724716,5.19959255 47.5724716,7.16196245 46.3621151,8.3722501" id="Stroke-101" stroke="#000000" stroke-linecap="round" stroke-linejoin="round"></path>
                <path d="M33.9651,8.3723 C32.7548,9.5826 30.7925,9.5826 29.5822,8.3723 C28.3718,7.162 28.3718,5.1996 29.5822,3.9893 C30.7925,2.779 32.7548,2.779 33.9651,3.9893 C35.1755,5.1996 35.1755,7.162 33.9651,8.3723" id="Fill-102" fill="#007FB3"></path>
                <path d="M33.9651551,8.3722501 C32.7548674,9.58260663 30.7924976,9.58260663 29.5822099,8.3722501 C28.3718534,7.16196245 28.3718534,5.19959255 29.5822099,3.9893049 C30.7924976,2.77894837 32.7548674,2.77894837 33.9651551,3.9893049 C35.1755116,5.19959255 35.1755116,7.16196245 33.9651551,8.3722501" id="Stroke-103" stroke="#000000" stroke-linecap="round" stroke-linejoin="round"></path>
                <path d="M9.1712,8.3723 C7.9609,9.5826 5.9985,9.5826 4.7882,8.3723 C3.5779,7.162 3.5779,5.1996 4.7882,3.9893 C5.9985,2.779 7.9609,2.779 9.1712,3.9893 C10.3816,5.1996 10.3816,7.162 9.1712,8.3723" id="Fill-104" fill="#007FB3"></path>
                <path d="M9.1712351,8.3722501 C7.96094745,9.58260663 5.99857755,9.58260663 4.7882899,8.3722501 C3.57793337,7.16196245 3.57793337,5.19959255 4.7882899,3.9893049 C5.99857755,2.77894837 7.96094745,2.77894837 9.1712351,3.9893049 C10.3815916,5.19959255 10.3815916,7.16196245 9.1712351,8.3722501" id="Stroke-105" stroke="#000000" stroke-linecap="round" stroke-linejoin="round"></path>
                <path d="M95.9499,8.3723 C94.7396,9.5826 92.7773,9.5826 91.567,8.3723 C90.3566,7.162 90.3566,5.1996 91.567,3.9893 C92.7773,2.779 94.7396,2.779 95.9499,3.9893 C97.1603,5.1996 97.1603,7.162 95.9499,8.3723" id="Fill-106" fill="#007FB3"></path>
                <path d="M95.9498174,8.3722501 C94.7397363,9.58260663 92.777573,9.58260663 91.5668033,8.3722501 C90.3567222,7.16196245 90.3567222,5.19959255 91.5668033,3.9893049 C92.777573,2.77894837 94.7397363,2.77894837 95.9498174,3.9893049 C97.1605871,5.19959255 97.1605871,7.16196245 95.9498174,8.3722501" id="Stroke-107" stroke="#000000" stroke-linecap="round" stroke-linejoin="round"></path>
                <path d="M100.050456,3.44742 L100.050456,8.95718 C100.050456,10.8590114 98.5084122,12.40078 96.6068562,12.40078 L4.16561814,12.40078 C2.26378674,12.40078 0.722018144,10.8590114 0.722018144,8.95718 L0.722018144,3.44742 C0.722018144,1.54558859 2.26378674,0.00382 4.16561814,0.00382 L96.6068562,0.00382 C98.5084122,0.00382 100.050456,1.54558859 100.050456,3.44742 Z" id="Stroke-13" stroke="#000000" stroke-linecap="round" stroke-linejoin="round"></path>
            </g>
            <g id="layer" transform="translate(62.000000, 111.000000)">
                <path d="M21.5682,8.9677 C20.3579,10.1781 18.3955,10.1781 17.1852,8.9677 C15.9749,7.7574 15.9749,5.7951 17.1852,4.5848 C18.3955,3.3744 20.3579,3.3744 21.5682,4.5848 C22.7785,5.7951 22.7785,7.7574 21.5682,8.9677" id="Fill-108" fill="#007FB3"></path>
                <path d="M21.5681951,8.9676901 C20.3579074,10.1780466 18.3955376,10.1780466 17.1852499,8.9676901 C15.9748934,7.75740245 15.9748934,5.79503255 17.1852499,4.5847449 C18.3955376,3.37438837 20.3579074,3.37438837 21.5681951,4.5847449 C22.7785516,5.79503255 22.7785516,7.75740245 21.5681951,8.9676901" id="Stroke-109" stroke="#000000" stroke-linecap="round" stroke-linejoin="round"></path>
                <path d="M83.553,8.9677 C82.3427,10.1781 80.3803,10.1781 79.17,8.9677 C77.9597,7.7574 77.9597,5.7951 79.17,4.5848 C80.3803,3.3744 82.3427,3.3744 83.553,4.5848 C84.7633,5.7951 84.7633,7.7574 83.553,8.9677" id="Fill-110" fill="#007FB3"></path>
                <path d="M83.5528574,8.9676901 C82.3427763,10.1780466 80.380613,10.1780466 79.1698433,8.9676901 C77.9597622,7.75740245 77.9597622,5.79503255 79.1698433,4.5847449 C80.380613,3.37438837 82.3427763,3.37438837 83.5528574,4.5847449 C84.7636271,5.79503255 84.7636271,7.75740245 83.5528574,8.9676901" id="Stroke-111" stroke="#000000" stroke-linecap="round" stroke-linejoin="round"></path>
                <path d="M71.156,8.9677 C69.9457,10.1781 67.9833,10.1781 66.773,8.9677 C65.5627,7.7574 65.5627,5.7951 66.773,4.5848 C67.9833,3.3744 69.9457,3.3744 71.156,4.5848 C72.3664,5.7951 72.3664,7.7574 71.156,8.9677" id="Fill-112" fill="#007FB3"></path>
                <path d="M71.1558974,8.9676901 C69.9458163,10.1780466 67.983653,10.1780466 66.7728833,8.9676901 C65.5628022,7.75740245 65.5628022,5.79503255 66.7728833,4.5847449 C67.983653,3.37438837 69.9458163,3.37438837 71.1558974,4.5847449 C72.3666671,5.79503255 72.3666671,7.75740245 71.1558974,8.9676901" id="Stroke-113" stroke="#000000" stroke-linecap="round" stroke-linejoin="round"></path>
                <path d="M58.759,8.9677 C57.5487,10.1781 55.5864,10.1781 54.3761,8.9677 C53.1657,7.7574 53.1657,5.7951 54.3761,4.5848 C55.5864,3.3744 57.5487,3.3744 58.759,4.5848 C59.9694,5.7951 59.9694,7.7574 58.759,8.9677" id="Fill-114" fill="#007FB3"></path>
                <path d="M58.7590751,8.9676901 C57.5487874,10.1780466 55.5864176,10.1780466 54.3761299,8.9676901 C53.1657734,7.75740245 53.1657734,5.79503255 54.3761299,4.5847449 C55.5864176,3.37438837 57.5487874,3.37438837 58.7590751,4.5847449 C59.9694316,5.79503255 59.9694316,7.75740245 58.7590751,8.9676901" id="Stroke-115" stroke="#000000" stroke-linecap="round" stroke-linejoin="round"></path>
                <path d="M46.3621,8.9677 C45.1518,10.1781 43.1894,10.1781 41.9791,8.9677 C40.7688,7.7574 40.7688,5.7951 41.9791,4.5848 C43.1894,3.3744 45.1518,3.3744 46.3621,4.5848 C47.5724,5.7951 47.5724,7.7574 46.3621,8.9677" id="Fill-116" fill="#007FB3"></path>
                <path d="M46.3621151,8.9676901 C45.1518274,10.1780466 43.1894576,10.1780466 41.9791699,8.9676901 C40.7688134,7.75740245 40.7688134,5.79503255 41.9791699,4.5847449 C43.1894576,3.37438837 45.1518274,3.37438837 46.3621151,4.5847449 C47.5724716,5.79503255 47.5724716,7.75740245 46.3621151,8.9676901" id="Stroke-117" stroke="#000000" stroke-linecap="round" stroke-linejoin="round"></path>
                <path d="M33.9651,8.9677 C32.7548,10.1781 30.7925,10.1781 29.5822,8.9677 C28.3718,7.7574 28.3718,5.7951 29.5822,4.5848 C30.7925,3.3744 32.7548,3.3744 33.9651,4.5848 C35.1755,5.7951 35.1755,7.7574 33.9651,8.9677" id="Fill-118" fill="#007FB3"></path>
                <path d="M33.9651551,8.9676901 C32.7548674,10.1780466 30.7924976,10.1780466 29.5822099,8.9676901 C28.3718534,7.75740245 28.3718534,5.79503255 29.5822099,4.5847449 C30.7924976,3.37438837 32.7548674,3.37438837 33.9651551,4.5847449 C35.1755116,5.79503255 35.1755116,7.75740245 33.9651551,8.9676901" id="Stroke-119" stroke="#000000" stroke-linecap="round" stroke-linejoin="round"></path>
                <path d="M9.1712,8.9677 C7.9609,10.1781 5.9985,10.1781 4.7882,8.9677 C3.5779,7.7574 3.5779,5.7951 4.7882,4.5848 C5.9985,3.3744 7.9609,3.3744 9.1712,4.5848 C10.3816,5.7951 10.3816,7.7574 9.1712,8.9677" id="Fill-120" fill="#007FB3"></path>
                <path d="M9.1712351,8.9676901 C7.96094745,10.1780466 5.99857755,10.1780466 4.7882899,8.9676901 C3.57793337,7.75740245 3.57793337,5.79503255 4.7882899,4.5847449 C5.99857755,3.37438837 7.96094745,3.37438837 9.1712351,4.5847449 C10.3815916,5.79503255 10.3815916,7.75740245 9.1712351,8.9676901" id="Stroke-121" stroke="#000000" stroke-linecap="round" stroke-linejoin="round"></path>
                <path d="M95.9499,8.9677 C94.7396,10.1781 92.7773,10.1781 91.567,8.9677 C90.3566,7.7574 90.3566,5.7951 91.567,4.5848 C92.7773,3.3744 94.7396,3.3744 95.9499,4.5848 C97.1603,5.7951 97.1603,7.7574 95.9499,8.9677" id="Fill-122" fill="#007FB3"></path>
                <path d="M95.9498174,8.9676901 C94.7397363,10.1780466 92.777573,10.1780466 91.5668033,8.9676901 C90.3567222,7.75740245 90.3567222,5.79503255 91.5668033,4.5847449 C92.777573,3.37438837 94.7397363,3.37438837 95.9498174,4.5847449 C97.1605871,5.79503255 97.1605871,7.75740245 95.9498174,8.9676901" id="Stroke-123" stroke="#000000" stroke-linecap="round" stroke-linejoin="round"></path>
                <path d="M100.050456,4.04286 L100.050456,9.55262 C100.050456,11.4544514 98.5084122,12.99622 96.6068562,12.99622 L4.16561814,12.99622 C2.26378674,12.99622 0.722018144,11.4544514 0.722018144,9.55262 L0.722018144,4.04286 C0.722018144,2.14102859 2.26378674,0.59926 4.16561814,0.59926 L96.6068562,0.59926 C98.5084122,0.59926 100.050456,2.14102859 100.050456,4.04286 Z" id="Stroke-11" stroke="#000000" stroke-linecap="round" stroke-linejoin="round"></path>
            </g>
            <g id="layer" transform="translate(62.000000, 130.000000)">
                <path d="M21.5682,8.5632 C20.3579,9.7735 18.3955,9.7735 17.1852,8.5632 C15.9749,7.3529 15.9749,5.3905 17.1852,4.1802 C18.3955,2.9698 20.3579,2.9698 21.5682,4.1802 C22.7785,5.3905 22.7785,7.3529 21.5682,8.5632" id="Fill-124" fill="#007FB3"></path>
                <path d="M21.5681951,8.5631301 C20.3579074,9.77348663 18.3955376,9.77348663 17.1852499,8.5631301 C15.9748934,7.35284245 15.9748934,5.39047255 17.1852499,4.1801849 C18.3955376,2.96982837 20.3579074,2.96982837 21.5681951,4.1801849 C22.7785516,5.39047255 22.7785516,7.35284245 21.5681951,8.5631301" id="Stroke-125" stroke="#000000" stroke-linecap="round" stroke-linejoin="round"></path>
                <path d="M83.553,8.5632 C82.3427,9.7735 80.3803,9.7735 79.17,8.5632 C77.9597,7.3529 77.9597,5.3905 79.17,4.1802 C80.3803,2.9698 82.3427,2.9698 83.553,4.1802 C84.7633,5.3905 84.7633,7.3529 83.553,8.5632" id="Fill-126" fill="#007FB3"></path>
                <path d="M83.5528574,8.5631301 C82.3427763,9.77348663 80.380613,9.77348663 79.1698433,8.5631301 C77.9597622,7.35284245 77.9597622,5.39047255 79.1698433,4.1801849 C80.380613,2.96982837 82.3427763,2.96982837 83.5528574,4.1801849 C84.7636271,5.39047255 84.7636271,7.35284245 83.5528574,8.5631301" id="Stroke-127" stroke="#000000" stroke-linecap="round" stroke-linejoin="round"></path>
                <path d="M71.156,8.5632 C69.9457,9.7735 67.9833,9.7735 66.773,8.5632 C65.5627,7.3529 65.5627,5.3905 66.773,4.1802 C67.9833,2.9698 69.9457,2.9698 71.156,4.1802 C72.3664,5.3905 72.3664,7.3529 71.156,8.5632" id="Fill-128" fill="#007FB3"></path>
                <path d="M71.1558974,8.5631301 C69.9458163,9.77348663 67.983653,9.77348663 66.7728833,8.5631301 C65.5628022,7.35284245 65.5628022,5.39047255 66.7728833,4.1801849 C67.983653,2.96982837 69.9458163,2.96982837 71.1558974,4.1801849 C72.3666671,5.39047255 72.3666671,7.35284245 71.1558974,8.5631301" id="Stroke-129" stroke="#000000" stroke-linecap="round" stroke-linejoin="round"></path>
                <path d="M58.759,8.5632 C57.5487,9.7735 55.5864,9.7735 54.3761,8.5632 C53.1657,7.3529 53.1657,5.3905 54.3761,4.1802 C55.5864,2.9698 57.5487,2.9698 58.759,4.1802 C59.9694,5.3905 59.9694,7.3529 58.759,8.5632" id="Fill-130" fill="#007FB3"></path>
                <path d="M58.7590751,8.5631301 C57.5487874,9.77348663 55.5864176,9.77348663 54.3761299,8.5631301 C53.1657734,7.35284245 53.1657734,5.39047255 54.3761299,4.1801849 C55.5864176,2.96982837 57.5487874,2.96982837 58.7590751,4.1801849 C59.9694316,5.39047255 59.9694316,7.35284245 58.7590751,8.5631301" id="Stroke-131" stroke="#000000" stroke-linecap="round" stroke-linejoin="round"></path>
                <path d="M46.3621,8.5632 C45.1518,9.7735 43.1894,9.7735 41.9791,8.5632 C40.7688,7.3529 40.7688,5.3905 41.9791,4.1802 C43.1894,2.9698 45.1518,2.9698 46.3621,4.1802 C47.5724,5.3905 47.5724,7.3529 46.3621,8.5632" id="Fill-132" fill="#007FB3"></path>
                <path d="M46.3621151,8.5631301 C45.1518274,9.77348663 43.1894576,9.77348663 41.9791699,8.5631301 C40.7688134,7.35284245 40.7688134,5.39047255 41.9791699,4.1801849 C43.1894576,2.96982837 45.1518274,2.96982837 46.3621151,4.1801849 C47.5724716,5.39047255 47.5724716,7.35284245 46.3621151,8.5631301" id="Stroke-133" stroke="#000000" stroke-linecap="round" stroke-linejoin="round"></path>
                <path d="M33.9651,8.5632 C32.7548,9.7735 30.7925,9.7735 29.5822,8.5632 C28.3718,7.3529 28.3718,5.3905 29.5822,4.1802 C30.7925,2.9698 32.7548,2.9698 33.9651,4.1802 C35.1755,5.3905 35.1755,7.3529 33.9651,8.5632" id="Fill-134" fill="#007FB3"></path>
                <path d="M33.9651551,8.5631301 C32.7548674,9.77348663 30.7924976,9.77348663 29.5822099,8.5631301 C28.3718534,7.35284245 28.3718534,5.39047255 29.5822099,4.1801849 C30.7924976,2.96982837 32.7548674,2.96982837 33.9651551,4.1801849 C35.1755116,5.39047255 35.1755116,7.35284245 33.9651551,8.5631301" id="Stroke-135" stroke="#000000" stroke-linecap="round" stroke-linejoin="round"></path>
                <path d="M9.1712,8.5632 C7.9609,9.7735 5.9985,9.7735 4.7882,8.5632 C3.5779,7.3529 3.5779,5.3905 4.7882,4.1802 C5.9985,2.9698 7.9609,2.9698 9.1712,4.1802 C10.3816,5.3905 10.3816,7.3529 9.1712,8.5632" id="Fill-136" fill="#007FB3"></path>
                <path d="M9.1712351,8.5631301 C7.96094745,9.77348663 5.99857755,9.77348663 4.7882899,8.5631301 C3.57793337,7.35284245 3.57793337,5.39047255 4.7882899,4.1801849 C5.99857755,2.96982837 7.96094745,2.96982837 9.1712351,4.1801849 C10.3815916,5.39047255 10.3815916,7.35284245 9.1712351,8.5631301" id="Stroke-137" stroke="#000000" stroke-linecap="round" stroke-linejoin="round"></path>
                <path d="M95.9499,8.5632 C94.7396,9.7735 92.7773,9.7735 91.567,8.5632 C90.3566,7.3529 90.3566,5.3905 91.567,4.1802 C92.7773,2.9698 94.7396,2.9698 95.9499,4.1802 C97.1603,5.3905 97.1603,7.3529 95.9499,8.5632" id="Fill-138" fill="#007FB3"></path>
                <path d="M95.9498174,8.5631301 C94.7397363,9.77348663 92.777573,9.77348663 91.5668033,8.5631301 C90.3567222,7.35284245 90.3567222,5.39047255 91.5668033,4.1801849 C92.777573,2.96982837 94.7397363,2.96982837 95.9498174,4.1801849 C97.1605871,5.39047255 97.1605871,7.35284245 95.9498174,8.5631301" id="Stroke-139" stroke="#000000" stroke-linecap="round" stroke-linejoin="round"></path>
                <path d="M100.050456,3.6383 L100.050456,9.14806 C100.050456,11.0498914 98.5084122,12.59166 96.6068562,12.59166 L4.16561814,12.59166 C2.26378674,12.59166 0.722018144,11.0498914 0.722018144,9.14806 L0.722018144,3.6383 C0.722018144,1.73646859 2.26378674,0.1947 4.16561814,0.1947 L96.6068562,0.1947 C98.5084122,0.1947 100.050456,1.73646859 100.050456,3.6383 Z" id="Stroke-9" stroke="#000000" stroke-linecap="round" stroke-linejoin="round"></path>
            </g>
            <g id="layer" transform="translate(62.000000, 148.000000)">
                <path d="M21.5682,9.1586 C20.3579,10.3689 18.3955,10.3689 17.1852,9.1586 C15.9749,7.9483 15.9749,5.9859 17.1852,4.7756 C18.3955,3.5653 20.3579,3.5653 21.5682,4.7756 C22.7785,5.9859 22.7785,7.9483 21.5682,9.1586" id="Fill-140" fill="#007FB3"></path>
                <path d="M21.5681951,9.1585701 C20.3579074,10.3689266 18.3955376,10.3689266 17.1852499,9.1585701 C15.9748934,7.94828245 15.9748934,5.98591255 17.1852499,4.7756249 C18.3955376,3.56526837 20.3579074,3.56526837 21.5681951,4.7756249 C22.7785516,5.98591255 22.7785516,7.94828245 21.5681951,9.1585701" id="Stroke-141" stroke="#000000" stroke-linecap="round" stroke-linejoin="round"></path>
                <path d="M83.553,9.1586 C82.3427,10.3689 80.3803,10.3689 79.17,9.1586 C77.9597,7.9483 77.9597,5.9859 79.17,4.7756 C80.3803,3.5653 82.3427,3.5653 83.553,4.7756 C84.7633,5.9859 84.7633,7.9483 83.553,9.1586" id="Fill-142" fill="#007FB3"></path>
                <path d="M83.5528574,9.1585701 C82.3427763,10.3689266 80.380613,10.3689266 79.1698433,9.1585701 C77.9597622,7.94828245 77.9597622,5.98591255 79.1698433,4.7756249 C80.380613,3.56526837 82.3427763,3.56526837 83.5528574,4.7756249 C84.7636271,5.98591255 84.7636271,7.94828245 83.5528574,9.1585701" id="Stroke-143" stroke="#000000" stroke-linecap="round" stroke-linejoin="round"></path>
                <path d="M71.156,9.1586 C69.9457,10.3689 67.9833,10.3689 66.773,9.1586 C65.5627,7.9483 65.5627,5.9859 66.773,4.7756 C67.9833,3.5653 69.9457,3.5653 71.156,4.7756 C72.3664,5.9859 72.3664,7.9483 71.156,9.1586" id="Fill-144" fill="#007FB3"></path>
                <path d="M71.1558974,9.1585701 C69.9458163,10.3689266 67.983653,10.3689266 66.7728833,9.1585701 C65.5628022,7.94828245 65.5628022,5.98591255 66.7728833,4.7756249 C67.983653,3.56526837 69.9458163,3.56526837 71.1558974,4.7756249 C72.3666671,5.98591255 72.3666671,7.94828245 71.1558974,9.1585701" id="Stroke-145" stroke="#000000" stroke-linecap="round" stroke-linejoin="round"></path>
                <path d="M58.759,9.1586 C57.5487,10.3689 55.5864,10.3689 54.3761,9.1586 C53.1657,7.9483 53.1657,5.9859 54.3761,4.7756 C55.5864,3.5653 57.5487,3.5653 58.759,4.7756 C59.9694,5.9859 59.9694,7.9483 58.759,9.1586" id="Fill-146" fill="#007FB3"></path>
                <path d="M58.7590751,9.1585701 C57.5487874,10.3689266 55.5864176,10.3689266 54.3761299,9.1585701 C53.1657734,7.94828245 53.1657734,5.98591255 54.3761299,4.7756249 C55.5864176,3.56526837 57.5487874,3.56526837 58.7590751,4.7756249 C59.9694316,5.98591255 59.9694316,7.94828245 58.7590751,9.1585701" id="Stroke-147" stroke="#000000" stroke-linecap="round" stroke-linejoin="round"></path>
                <path d="M46.3621,9.1586 C45.1518,10.3689 43.1894,10.3689 41.9791,9.1586 C40.7688,7.9483 40.7688,5.9859 41.9791,4.7756 C43.1894,3.5653 45.1518,3.5653 46.3621,4.7756 C47.5724,5.9859 47.5724,7.9483 46.3621,9.1586" id="Fill-148" fill="#007FB3"></path>
                <path d="M46.3621151,9.1585701 C45.1518274,10.3689266 43.1894576,10.3689266 41.9791699,9.1585701 C40.7688134,7.94828245 40.7688134,5.98591255 41.9791699,4.7756249 C43.1894576,3.56526837 45.1518274,3.56526837 46.3621151,4.7756249 C47.5724716,5.98591255 47.5724716,7.94828245 46.3621151,9.1585701" id="Stroke-149" stroke="#000000" stroke-linecap="round" stroke-linejoin="round"></path>
                <path d="M33.9651,9.1586 C32.7548,10.3689 30.7925,10.3689 29.5822,9.1586 C28.3718,7.9483 28.3718,5.9859 29.5822,4.7756 C30.7925,3.5653 32.7548,3.5653 33.9651,4.7756 C35.1755,5.9859 35.1755,7.9483 33.9651,9.1586" id="Fill-150" fill="#007FB3"></path>
                <path d="M33.9651551,9.1585701 C32.7548674,10.3689266 30.7924976,10.3689266 29.5822099,9.1585701 C28.3718534,7.94828245 28.3718534,5.98591255 29.5822099,4.7756249 C30.7924976,3.56526837 32.7548674,3.56526837 33.9651551,4.7756249 C35.1755116,5.98591255 35.1755116,7.94828245 33.9651551,9.1585701" id="Stroke-151" stroke="#000000" stroke-linecap="round" stroke-linejoin="round"></path>
                <path d="M9.1712,9.1586 C7.9609,10.3689 5.9985,10.3689 4.7882,9.1586 C3.5779,7.9483 3.5779,5.9859 4.7882,4.7756 C5.9985,3.5653 7.9609,3.5653 9.1712,4.7756 C10.3816,5.9859 10.3816,7.9483 9.1712,9.1586" id="Fill-152" fill="#007FB3"></path>
                <path d="M9.1712351,9.1585701 C7.96094745,10.3689266 5.99857755,10.3689266 4.7882899,9.1585701 C3.57793337,7.94828245 3.57793337,5.98591255 4.7882899,4.7756249 C5.99857755,3.56526837 7.96094745,3.56526837 9.1712351,4.7756249 C10.3815916,5.98591255 10.3815916,7.94828245 9.1712351,9.1585701" id="Stroke-153" stroke="#000000" stroke-linecap="round" stroke-linejoin="round"></path>
                <path d="M95.9499,9.1586 C94.7396,10.3689 92.7773,10.3689 91.567,9.1586 C90.3566,7.9483 90.3566,5.9859 91.567,4.7756 C92.7773,3.5653 94.7396,3.5653 95.9499,4.7756 C97.1603,5.9859 97.1603,7.9483 95.9499,9.1586" id="Fill-154" fill="#007FB3"></path>
                <path d="M95.9498174,9.1585701 C94.7397363,10.3689266 92.777573,10.3689266 91.5668033,9.1585701 C90.3567222,7.94828245 90.3567222,5.98591255 91.5668033,4.7756249 C92.777573,3.56526837 94.7397363,3.56526837 95.9498174,4.7756249 C97.1605871,5.98591255 97.1605871,7.94828245 95.9498174,9.1585701" id="Stroke-155" stroke="#000000" stroke-linecap="round" stroke-linejoin="round"></path>
                <path d="M100.050456,4.23374 L100.050456,9.7435 C100.050456,11.6453314 98.5084122,13.1871 96.6068562,13.1871 L4.16561814,13.1871 C2.26378674,13.1871 0.722018144,11.6453314 0.722018144,9.7435 L0.722018144,4.23374 C0.722018144,2.33190859 2.26378674,0.79014 4.16561814,0.79014 L96.6068562,0.79014 C98.5084122,0.79014 100.050456,2.33190859 100.050456,4.23374 Z" id="Stroke-7" stroke="#000000" stroke-linecap="round" stroke-linejoin="round"></path>
            </g>
            <g id="layer" transform="translate(62.000000, 167.000000)">
                <path d="M21.5682,8.7541 C20.3579,9.9644 18.3955,9.9644 17.1852,8.7541 C15.9749,7.5437 15.9749,5.5814 17.1852,4.3711 C18.3955,3.1607 20.3579,3.1607 21.5682,4.3711 C22.7785,5.5814 22.7785,7.5437 21.5682,8.7541" id="Fill-156" fill="#FF930B"></path>
                <path d="M21.5681951,8.7540101 C20.3579074,9.96436663 18.3955376,9.96436663 17.1852499,8.7540101 C15.9748934,7.54372245 15.9748934,5.58135255 17.1852499,4.3710649 C18.3955376,3.16070837 20.3579074,3.16070837 21.5681951,4.3710649 C22.7785516,5.58135255 22.7785516,7.54372245 21.5681951,8.7540101" id="Stroke-157" stroke="#000000" stroke-linecap="round" stroke-linejoin="round"></path>
                <path d="M83.553,8.7541 C82.3427,9.9644 80.3803,9.9644 79.17,8.7541 C77.9597,7.5437 77.9597,5.5814 79.17,4.3711 C80.3803,3.1607 82.3427,3.1607 83.553,4.3711 C84.7633,5.5814 84.7633,7.5437 83.553,8.7541" id="Fill-158" fill="#FF930B"></path>
                <path d="M83.5528574,8.7540101 C82.3427763,9.96436663 80.380613,9.96436663 79.1698433,8.7540101 C77.9597622,7.54372245 77.9597622,5.58135255 79.1698433,4.3710649 C80.380613,3.16070837 82.3427763,3.16070837 83.5528574,4.3710649 C84.7636271,5.58135255 84.7636271,7.54372245 83.5528574,8.7540101" id="Stroke-159" stroke="#000000" stroke-linecap="round" stroke-linejoin="round"></path>
                <path d="M71.156,8.7541 C69.9457,9.9644 67.9833,9.9644 66.773,8.7541 C65.5627,7.5437 65.5627,5.5814 66.773,4.3711 C67.9833,3.1607 69.9457,3.1607 71.156,4.3711 C72.3664,5.5814 72.3664,7.5437 71.156,8.7541" id="Fill-160" fill="#FF930B"></path>
                <path d="M71.1558974,8.7540101 C69.9458163,9.96436663 67.983653,9.96436663 66.7728833,8.7540101 C65.5628022,7.54372245 65.5628022,5.58135255 66.7728833,4.3710649 C67.983653,3.16070837 69.9458163,3.16070837 71.1558974,4.3710649 C72.3666671,5.58135255 72.3666671,7.54372245 71.1558974,8.7540101" id="Stroke-161" stroke="#000000" stroke-linecap="round" stroke-linejoin="round"></path>
                <path d="M58.759,8.7541 C57.5487,9.9644 55.5864,9.9644 54.3761,8.7541 C53.1657,7.5437 53.1657,5.5814 54.3761,4.3711 C55.5864,3.1607 57.5487,3.1607 58.759,4.3711 C59.9694,5.5814 59.9694,7.5437 58.759,8.7541" id="Fill-162" fill="#FF930B"></path>
                <path d="M58.7590751,8.7540101 C57.5487874,9.96436663 55.5864176,9.96436663 54.3761299,8.7540101 C53.1657734,7.54372245 53.1657734,5.58135255 54.3761299,4.3710649 C55.5864176,3.16070837 57.5487874,3.16070837 58.7590751,4.3710649 C59.9694316,5.58135255 59.9694316,7.54372245 58.7590751,8.7540101" id="Stroke-163" stroke="#000000" stroke-linecap="round" stroke-linejoin="round"></path>
                <path d="M46.3621,8.7541 C45.1518,9.9644 43.1894,9.9644 41.9791,8.7541 C40.7688,7.5437 40.7688,5.5814 41.9791,4.3711 C43.1894,3.1607 45.1518,3.1607 46.3621,4.3711 C47.5724,5.5814 47.5724,7.5437 46.3621,8.7541" id="Fill-164" fill="#FF930B"></path>
                <path d="M46.3621151,8.7540101 C45.1518274,9.96436663 43.1894576,9.96436663 41.9791699,8.7540101 C40.7688134,7.54372245 40.7688134,5.58135255 41.9791699,4.3710649 C43.1894576,3.16070837 45.1518274,3.16070837 46.3621151,4.3710649 C47.5724716,5.58135255 47.5724716,7.54372245 46.3621151,8.7540101" id="Stroke-165" stroke="#000000" stroke-linecap="round" stroke-linejoin="round"></path>
                <path d="M33.9651,8.7541 C32.7548,9.9644 30.7925,9.9644 29.5822,8.7541 C28.3718,7.5437 28.3718,5.5814 29.5822,4.3711 C30.7925,3.1607 32.7548,3.1607 33.9651,4.3711 C35.1755,5.5814 35.1755,7.5437 33.9651,8.7541" id="Fill-166" fill="#FF930B"></path>
                <path d="M33.9651551,8.7540101 C32.7548674,9.96436663 30.7924976,9.96436663 29.5822099,8.7540101 C28.3718534,7.54372245 28.3718534,5.58135255 29.5822099,4.3710649 C30.7924976,3.16070837 32.7548674,3.16070837 33.9651551,4.3710649 C35.1755116,5.58135255 35.1755116,7.54372245 33.9651551,8.7540101" id="Stroke-167" stroke="#000000" stroke-linecap="round" stroke-linejoin="round"></path>
                <path d="M9.1712,8.7541 C7.9609,9.9644 5.9985,9.9644 4.7882,8.7541 C3.5779,7.5437 3.5779,5.5814 4.7882,4.3711 C5.9985,3.1607 7.9609,3.1607 9.1712,4.3711 C10.3816,5.5814 10.3816,7.5437 9.1712,8.7541" id="Fill-168" fill="#FF930B"></path>
                <path d="M9.1712351,8.7540101 C7.96094745,9.96436663 5.99857755,9.96436663 4.7882899,8.7540101 C3.57793337,7.54372245 3.57793337,5.58135255 4.7882899,4.3710649 C5.99857755,3.16070837 7.96094745,3.16070837 9.1712351,4.3710649 C10.3815916,5.58135255 10.3815916,7.54372245 9.1712351,8.7540101" id="Stroke-169" stroke="#000000" stroke-linecap="round" stroke-linejoin="round"></path>
                <path d="M95.9499,8.7541 C94.7396,9.9644 92.7773,9.9644 91.567,8.7541 C90.3566,7.5437 90.3566,5.5814 91.567,4.3711 C92.7773,3.1607 94.7396,3.1607 95.9499,4.3711 C97.1603,5.5814 97.1603,7.5437 95.9499,8.7541" id="Fill-170" fill="#FF930B"></path>
                <path d="M95.9498174,8.7540101 C94.7397363,9.96436663 92.777573,9.96436663 91.5668033,8.7540101 C90.3567222,7.54372245 90.3567222,5.58135255 91.5668033,4.3710649 C92.777573,3.16070837 94.7397363,3.16070837 95.9498174,4.3710649 C97.1605871,5.58135255 97.1605871,7.54372245 95.9498174,8.7540101" id="Stroke-171" stroke="#000000" stroke-linecap="round" stroke-linejoin="round"></path>
                <path d="M100.050456,3.82918 L100.050456,9.33894 C100.050456,11.2407714 98.5084122,12.78254 96.6068562,12.78254 L4.16561814,12.78254 C2.26378674,12.78254 0.722018144,11.2407714 0.722018144,9.33894 L0.722018144,3.82918 C0.722018144,1.92734859 2.26378674,0.38558 4.16561814,0.38558 L96.6068562,0.38558 C98.5084122,0.38558 100.050456,1.92734859 100.050456,3.82918 Z" id="Stroke-5" stroke="#000000" stroke-linecap="round" stroke-linejoin="round"></path>
            </g>
            <g id="layer" transform="translate(62.000000, 185.000000)">
                <path d="M21.5682,9.3495 C20.3579,10.5598 18.3955,10.5598 17.1852,9.3495 C15.9749,8.1392 15.9749,6.1768 17.1852,4.9665 C18.3955,3.7562 20.3579,3.7562 21.5682,4.9665 C22.7785,6.1768 22.7785,8.1392 21.5682,9.3495" id="Fill-172" fill="#FF930B"></path>
                <path d="M21.5681951,9.3494501 C20.3579074,10.5598066 18.3955376,10.5598066 17.1852499,9.3494501 C15.9748934,8.13916245 15.9748934,6.17679255 17.1852499,4.9665049 C18.3955376,3.75614837 20.3579074,3.75614837 21.5681951,4.9665049 C22.7785516,6.17679255 22.7785516,8.13916245 21.5681951,9.3494501" id="Stroke-173" stroke="#000000" stroke-linecap="round" stroke-linejoin="round"></path>
                <path d="M83.553,9.3495 C82.3427,10.5598 80.3803,10.5598 79.17,9.3495 C77.9597,8.1392 77.9597,6.1768 79.17,4.9665 C80.3803,3.7562 82.3427,3.7562 83.553,4.9665 C84.7633,6.1768 84.7633,8.1392 83.553,9.3495" id="Fill-174" fill="#FF930B"></path>
                <path d="M83.5528574,9.3494501 C82.3427763,10.5598066 80.380613,10.5598066 79.1698433,9.3494501 C77.9597622,8.13916245 77.9597622,6.17679255 79.1698433,4.9665049 C80.380613,3.75614837 82.3427763,3.75614837 83.5528574,4.9665049 C84.7636271,6.17679255 84.7636271,8.13916245 83.5528574,9.3494501" id="Stroke-175" stroke="#000000" stroke-linecap="round" stroke-linejoin="round"></path>
                <path d="M71.156,9.3495 C69.9457,10.5598 67.9833,10.5598 66.773,9.3495 C65.5627,8.1392 65.5627,6.1768 66.773,4.9665 C67.9833,3.7562 69.9457,3.7562 71.156,4.9665 C72.3664,6.1768 72.3664,8.1392 71.156,9.3495" id="Fill-176" fill="#FF930B"></path>
                <path d="M71.1558974,9.3494501 C69.9458163,10.5598066 67.983653,10.5598066 66.7728833,9.3494501 C65.5628022,8.13916245 65.5628022,6.17679255 66.7728833,4.9665049 C67.983653,3.75614837 69.9458163,3.75614837 71.1558974,4.9665049 C72.3666671,6.17679255 72.3666671,8.13916245 71.1558974,9.3494501" id="Stroke-177" stroke="#000000" stroke-linecap="round" stroke-linejoin="round"></path>
                <path d="M58.759,9.3495 C57.5487,10.5598 55.5864,10.5598 54.3761,9.3495 C53.1657,8.1392 53.1657,6.1768 54.3761,4.9665 C55.5864,3.7562 57.5487,3.7562 58.759,4.9665 C59.9694,6.1768 59.9694,8.1392 58.759,9.3495" id="Fill-178" fill="#FF930B"></path>
                <path d="M58.7590751,9.3494501 C57.5487874,10.5598066 55.5864176,10.5598066 54.3761299,9.3494501 C53.1657734,8.13916245 53.1657734,6.17679255 54.3761299,4.9665049 C55.5864176,3.75614837 57.5487874,3.75614837 58.7590751,4.9665049 C59.9694316,6.17679255 59.9694316,8.13916245 58.7590751,9.3494501" id="Stroke-179" stroke="#000000" stroke-linecap="round" stroke-linejoin="round"></path>
                <path d="M46.3621,9.3495 C45.1518,10.5598 43.1894,10.5598 41.9791,9.3495 C40.7688,8.1392 40.7688,6.1768 41.9791,4.9665 C43.1894,3.7562 45.1518,3.7562 46.3621,4.9665 C47.5724,6.1768 47.5724,8.1392 46.3621,9.3495" id="Fill-180" fill="#FF930B"></path>
                <path d="M46.3621151,9.3494501 C45.1518274,10.5598066 43.1894576,10.5598066 41.9791699,9.3494501 C40.7688134,8.13916245 40.7688134,6.17679255 41.9791699,4.9665049 C43.1894576,3.75614837 45.1518274,3.75614837 46.3621151,4.9665049 C47.5724716,6.17679255 47.5724716,8.13916245 46.3621151,9.3494501" id="Stroke-181" stroke="#000000" stroke-linecap="round" stroke-linejoin="round"></path>
                <path d="M33.9651,9.3495 C32.7548,10.5598 30.7925,10.5598 29.5822,9.3495 C28.3718,8.1392 28.3718,6.1768 29.5822,4.9665 C30.7925,3.7562 32.7548,3.7562 33.9651,4.9665 C35.1755,6.1768 35.1755,8.1392 33.9651,9.3495" id="Fill-182" fill="#FF930B"></path>
                <path d="M33.9651551,9.3494501 C32.7548674,10.5598066 30.7924976,10.5598066 29.5822099,9.3494501 C28.3718534,8.13916245 28.3718534,6.17679255 29.5822099,4.9665049 C30.7924976,3.75614837 32.7548674,3.75614837 33.9651551,4.9665049 C35.1755116,6.17679255 35.1755116,8.13916245 33.9651551,9.3494501" id="Stroke-183" stroke="#000000" stroke-linecap="round" stroke-linejoin="round"></path>
                <path d="M9.1712,9.3495 C7.9609,10.5598 5.9985,10.5598 4.7882,9.3495 C3.5779,8.1392 3.5779,6.1768 4.7882,4.9665 C5.9985,3.7562 7.9609,3.7562 9.1712,4.9665 C10.3816,6.1768 10.3816,8.1392 9.1712,9.3495" id="Fill-184" fill="#FF930B"></path>
                <path d="M9.1712351,9.3494501 C7.96094745,10.5598066 5.99857755,10.5598066 4.7882899,9.3494501 C3.57793337,8.13916245 3.57793337,6.17679255 4.7882899,4.9665049 C5.99857755,3.75614837 7.96094745,3.75614837 9.1712351,4.9665049 C10.3815916,6.17679255 10.3815916,8.13916245 9.1712351,9.3494501" id="Stroke-185" stroke="#000000" stroke-linecap="round" stroke-linejoin="round"></path>
                <path d="M95.9499,9.3495 C94.7396,10.5598 92.7773,10.5598 91.567,9.3495 C90.3566,8.1392 90.3566,6.1768 91.567,4.9665 C92.7773,3.7562 94.7396,3.7562 95.9499,4.9665 C97.1603,6.1768 97.1603,8.1392 95.9499,9.3495" id="Fill-186" fill="#FF930B"></path>
                <path d="M95.9498174,9.3494501 C94.7397363,10.5598066 92.777573,10.5598066 91.5668033,9.3494501 C90.3567222,8.13916245 90.3567222,6.17679255 91.5668033,4.9665049 C92.777573,3.75614837 94.7397363,3.75614837 95.9498174,4.9665049 C97.1605871,6.17679255 97.1605871,8.13916245 95.9498174,9.3494501" id="Stroke-187" stroke="#000000" stroke-linecap="round" stroke-linejoin="round"></path>
                <path d="M100.050456,4.42462 L100.050456,9.93438 C100.050456,11.8362114 98.5084122,13.37798 96.6068562,13.37798 L4.16561814,13.37798 C2.26378674,13.37798 0.722018144,11.8362114 0.722018144,9.93438 L0.722018144,4.42462 C0.722018144,2.52278859 2.26378674,0.98102 4.16561814,0.98102 L96.6068562,0.98102 C98.5084122,0.98102 100.050456,2.52278859 100.050456,4.42462 Z" id="Stroke-3" stroke="#000000" stroke-linecap="round" stroke-linejoin="round"></path>
            </g>
            <g id="layer" transform="translate(62.000000, 204.000000)">
                <path d="M21.5682,8.9449 C20.3579,10.1553 18.3955,10.1553 17.1852,8.9449 C15.9749,7.7346 15.9749,5.7723 17.1852,4.5619 C18.3955,3.3516 20.3579,3.3516 21.5682,4.5619 C22.7785,5.7723 22.7785,7.7346 21.5682,8.9449" id="Fill-188" fill="#FF930B"></path>
                <path d="M21.5681951,8.9448901 C20.3579074,10.1552466 18.3955376,10.1552466 17.1852499,8.9448901 C15.9748934,7.73460245 15.9748934,5.77223255 17.1852499,4.5619449 C18.3955376,3.35158837 20.3579074,3.35158837 21.5681951,4.5619449 C22.7785516,5.77223255 22.7785516,7.73460245 21.5681951,8.9448901" id="Stroke-189" stroke="#000000" stroke-linecap="round" stroke-linejoin="round"></path>
                <path d="M83.553,8.9449 C82.3427,10.1553 80.3803,10.1553 79.17,8.9449 C77.9597,7.7346 77.9597,5.7723 79.17,4.5619 C80.3803,3.3516 82.3427,3.3516 83.553,4.5619 C84.7633,5.7723 84.7633,7.7346 83.553,8.9449" id="Fill-190" fill="#FF930B"></path>
                <path d="M83.5528574,8.9448901 C82.3427763,10.1552466 80.380613,10.1552466 79.1698433,8.9448901 C77.9597622,7.73460245 77.9597622,5.77223255 79.1698433,4.5619449 C80.380613,3.35158837 82.3427763,3.35158837 83.5528574,4.5619449 C84.7636271,5.77223255 84.7636271,7.73460245 83.5528574,8.9448901" id="Stroke-191" stroke="#000000" stroke-linecap="round" stroke-linejoin="round"></path>
                <path d="M71.156,8.9449 C69.9457,10.1553 67.9833,10.1553 66.773,8.9449 C65.5627,7.7346 65.5627,5.7723 66.773,4.5619 C67.9833,3.3516 69.9457,3.3516 71.156,4.5619 C72.3664,5.7723 72.3664,7.7346 71.156,8.9449" id="Fill-192" fill="#FF930B"></path>
                <path d="M71.1558974,8.9448901 C69.9458163,10.1552466 67.983653,10.1552466 66.7728833,8.9448901 C65.5628022,7.73460245 65.5628022,5.77223255 66.7728833,4.5619449 C67.983653,3.35158837 69.9458163,3.35158837 71.1558974,4.5619449 C72.3666671,5.77223255 72.3666671,7.73460245 71.1558974,8.9448901" id="Stroke-193" stroke="#000000" stroke-linecap="round" stroke-linejoin="round"></path>
                <path d="M58.759,8.9449 C57.5487,10.1553 55.5864,10.1553 54.3761,8.9449 C53.1657,7.7346 53.1657,5.7723 54.3761,4.5619 C55.5864,3.3516 57.5487,3.3516 58.759,4.5619 C59.9694,5.7723 59.9694,7.7346 58.759,8.9449" id="Fill-194" fill="#FF930B"></path>
                <path d="M58.7590751,8.9448901 C57.5487874,10.1552466 55.5864176,10.1552466 54.3761299,8.9448901 C53.1657734,7.73460245 53.1657734,5.77223255 54.3761299,4.5619449 C55.5864176,3.35158837 57.5487874,3.35158837 58.7590751,4.5619449 C59.9694316,5.77223255 59.9694316,7.73460245 58.7590751,8.9448901" id="Stroke-195" stroke="#000000" stroke-linecap="round" stroke-linejoin="round"></path>
                <path d="M46.3621,8.9449 C45.1518,10.1553 43.1894,10.1553 41.9791,8.9449 C40.7688,7.7346 40.7688,5.7723 41.9791,4.5619 C43.1894,3.3516 45.1518,3.3516 46.3621,4.5619 C47.5724,5.7723 47.5724,7.7346 46.3621,8.9449" id="Fill-196" fill="#FF930B"></path>
                <path d="M46.3621151,8.9448901 C45.1518274,10.1552466 43.1894576,10.1552466 41.9791699,8.9448901 C40.7688134,7.73460245 40.7688134,5.77223255 41.9791699,4.5619449 C43.1894576,3.35158837 45.1518274,3.35158837 46.3621151,4.5619449 C47.5724716,5.77223255 47.5724716,7.73460245 46.3621151,8.9448901" id="Stroke-197" stroke="#000000" stroke-linecap="round" stroke-linejoin="round"></path>
                <path d="M33.9651,8.9449 C32.7548,10.1553 30.7925,10.1553 29.5822,8.9449 C28.3718,7.7346 28.3718,5.7723 29.5822,4.5619 C30.7925,3.3516 32.7548,3.3516 33.9651,4.5619 C35.1755,5.7723 35.1755,7.7346 33.9651,8.9449" id="Fill-198" fill="#FF930B"></path>
                <path d="M33.9651551,8.9448901 C32.7548674,10.1552466 30.7924976,10.1552466 29.5822099,8.9448901 C28.3718534,7.73460245 28.3718534,5.77223255 29.5822099,4.5619449 C30.7924976,3.35158837 32.7548674,3.35158837 33.9651551,4.5619449 C35.1755116,5.77223255 35.1755116,7.73460245 33.9651551,8.9448901" id="Stroke-199" stroke="#000000" stroke-linecap="round" stroke-linejoin="round"></path>
                <path d="M9.1712,8.9449 C7.9609,10.1553 5.9985,10.1553 4.7882,8.9449 C3.5779,7.7346 3.5779,5.7723 4.7882,4.5619 C5.9985,3.3516 7.9609,3.3516 9.1712,4.5619 C10.3816,5.7723 10.3816,7.7346 9.1712,8.9449" id="Fill-200" fill="#FF930B"></path>
                <path d="M9.1712351,8.9448901 C7.96094745,10.1552466 5.99857755,10.1552466 4.7882899,8.9448901 C3.57793337,7.73460245 3.57793337,5.77223255 4.7882899,4.5619449 C5.99857755,3.35158837 7.96094745,3.35158837 9.1712351,4.5619449 C10.3815916,5.77223255 10.3815916,7.73460245 9.1712351,8.9448901" id="Stroke-201" stroke="#000000" stroke-linecap="round" stroke-linejoin="round"></path>
                <path d="M95.9499,8.9449 C94.7396,10.1553 92.7773,10.1553 91.567,8.9449 C90.3566,7.7346 90.3566,5.7723 91.567,4.5619 C92.7773,3.3516 94.7396,3.3516 95.9499,4.5619 C97.1603,5.7723 97.1603,7.7346 95.9499,8.9449" id="Fill-202" fill="#FF930B"></path>
                <path d="M95.9498174,8.9448901 C94.7397363,10.1552466 92.777573,10.1552466 91.5668033,8.9448901 C90.3567222,7.73460245 90.3567222,5.77223255 91.5668033,4.5619449 C92.777573,3.35158837 94.7397363,3.35158837 95.9498174,4.5619449 C97.1605871,5.77223255 97.1605871,7.73460245 95.9498174,8.9448901" id="Stroke-203" stroke="#000000" stroke-linecap="round" stroke-linejoin="round"></path>
                <path d="M100.050456,4.02006 L100.050456,9.52982 C100.050456,11.4316514 98.5084122,12.97342 96.6068562,12.97342 L4.16561814,12.97342 C2.26378674,12.97342 0.722018144,11.4316514 0.722018144,9.52982 L0.722018144,4.02006 C0.722018144,2.11822859 2.26378674,0.57646 4.16561814,0.57646 L96.6068562,0.57646 C98.5084122,0.57646 100.050456,2.11822859 100.050456,4.02006 Z" id="Stroke-1" stroke="#000000" stroke-linecap="round" stroke-linejoin="round"></path>
            </g>
            <g id="arrows" transform="translate(53.000000, 18.000000)" stroke="#000000">
                <path d="M115.65046,4.52779112 L115.65046,9.21108712" id="Stroke-204" stroke-linecap="round" stroke-linejoin="round"></path>
                <path d="M113.23994,13.0679191 L118.06098,13.0679191 M114.686252,7.5 L115.65046,10.874728 L116.614668,7.5" id="Stroke-205"></path>
                <path d="M118.06098,0.300003052 L113.23994,0.300003052 M116.614668,5.7747219 L115.65046,2.3999939 L114.686252,5.7747219" id="Stroke-206"></path>
                <path d="M115.65046,23.1232311 L115.65046,139.330268" id="Stroke-207" stroke-linecap="round" stroke-linejoin="round"></path>
                <path d="M113.23994,143 L118.06098,143 M114.686252,137.330268 L115.65046,140.704996 L116.614668,137.330268" id="Stroke-208"></path>
                <path d="M118.06098,19.5 L113.23994,19.5 M116.614668,25.1232311 L115.65046,21.7485031 L114.686252,25.1232311" id="Stroke-209"></path>
                <path d="M115.65046,153.266862 L115.65046,195.116588" id="Stroke-210" stroke-linecap="round" stroke-linejoin="round"></path>
                <path d="M113.23994,198.700012 L118.06098,198.700012 M114.686252,193.116588 L115.65046,196.491316 L116.614668,193.116588" id="Stroke-211"></path>
                <path d="M118.06098,149.600006 L113.23994,149.600006 M116.614668,155.266862 L115.65046,151.892134 L114.686252,155.266862" id="Stroke-212"></path>
                <path d="M2.93020586,4.38204419 L2.93020586,195.213422" id="Stroke-213" stroke-linecap="round" stroke-linejoin="round"></path>
                <path d="M0.519685864,198.799988 L5.34072586,198.799988 M1.96599786,193.213422 L2.93020586,196.58815 L3.89441386,193.213422" id="Stroke-214"></path>
                <path d="M5.34072586,1 L0.519685864,1 M3.89441386,6.38204419 L2.93020586,3.00731619 L1.96599786,6.38204419" id="Stroke-215"></path>
            </g>
            <g id="text" transform="translate(0.000000, 14.000000)" font-size="8" font-family="Helvetica-Light, Helvetica" fill="#000000" font-weight="300">
                <text id="Fully-Connected">
                    <tspan x="191.276" y="8">Fully </tspan>
                    <tspan x="179.712" y="18">Connected</tspan>
                </text>
                <text id="Recurrent-or-GRU-(Bi">
                    <tspan x="182.008" y="69">Recurrent</tspan>
                    <tspan x="195.944" y="79">or</tspan>
                    <tspan x="190.832" y="89">GRU</tspan>
                    <tspan x="174.68" y="99">(Bidirectional)</tspan>
                </text>
                <text id="1D-or-2D-Convolution">
                    <tspan x="183.496" y="175">1D or 2D</tspan>
                    <tspan x="178.38" y="185">Convolution</tspan>
                </text>
                <text id="Batch-Normalization">
                    <tspan x="15.048" y="100">Batch</tspan>
                    <tspan x="0.98" y="110">Normalization</tspan>
                </text>
            </g>
        </g>
    </g>
</svg>